
<?xml version="1.0" standalone="no"?>
<!DOCTYPE svg PUBLIC "-//W3C//DTD SVG 20010904//EN"
 "http://www.w3.org/TR/2001/REC-SVG-20010904/DTD/svg10.dtd">
<svg version="1.0" xmlns="http://www.w3.org/2000/svg"
 width="2015.000000pt" height="2071.000000pt" viewBox="0 0 2015.000000 2071.000000"
 preserveAspectRatio="xMidYMid meet">

<g transform="translate(0.000000,2071.000000) scale(0.100000,-0.100000)"
fill="#000000" stroke="none">
<path d="M9255 19269 c-137 -10 -268 -19 -290 -21 -37 -3 -40 -5 -43 -35 -3
-32 -2 -33 37 -33 43 0 71 -20 71 -51 0 -10 9 -143 21 -295 23 -306 24 -300
-43 -310 -38 -6 -39 -8 -32 -38 3 -17 7 -32 8 -32 2 -3 680 46 682 49 1 1 18
58 37 127 33 115 35 126 20 138 -34 25 -58 15 -83 -37 -30 -64 -93 -126 -150
-146 -52 -18 -269 -40 -281 -28 -6 7 -29 208 -29 265 0 13 13 18 55 23 30 4
66 4 80 1 37 -9 65 -42 65 -75 0 -44 10 -61 34 -61 50 1 51 5 37 192 -7 95
-14 174 -16 176 -1 2 -19 0 -39 -3 -34 -7 -36 -9 -36 -49 0 -23 -7 -51 -15
-63 -18 -25 -71 -43 -131 -43 l-41 0 -9 129 -9 128 95 7 c162 10 207 8 251
-14 34 -18 91 -80 101 -112 6 -16 57 -1 65 18 3 8 -14 60 -38 114 l-44 100
-40 -1 c-22 -1 -152 -10 -290 -20z"/>
<path d="M10154 19254 c-70 -171 -271 -633 -282 -651 -8 -13 -29 -25 -48 -29
-29 -5 -34 -10 -34 -35 l0 -29 100 -2 c55 -1 112 -2 128 -2 23 -1 27 3 30 32
3 31 2 32 -33 32 -23 0 -38 6 -41 15 -6 13 197 528 215 547 9 10 194 -549 186
-562 -3 -6 -22 -10 -41 -10 -32 0 -34 -2 -34 -35 l0 -35 145 0 145 0 0 29 c0
24 -5 30 -30 34 -18 4 -34 16 -43 34 -8 15 -65 178 -127 361 l-114 332 -37 0
c-21 0 -45 3 -53 6 -12 5 -20 -4 -32 -32z"/>
<path d="M10760 19235 c0 -14 -1 -28 -2 -32 -2 -5 16 -14 40 -21 39 -13 42
-16 42 -50 0 -41 -67 -546 -76 -574 -4 -14 -16 -18 -55 -18 l-49 0 0 -35 c0
-21 5 -35 13 -35 6 0 98 -11 202 -25 287 -37 339 -33 416 34 54 45 79 100 79
174 0 69 -23 120 -74 165 -43 38 -103 56 -233 73 -54 7 -102 15 -106 19 -8 7
18 213 29 231 3 5 25 9 49 9 40 0 44 2 50 31 4 17 5 32 3 34 -3 3 -300 45
-320 45 -4 0 -8 -11 -8 -25z m345 -437 c92 -19 140 -96 116 -184 -16 -61 -60
-96 -124 -102 -48 -4 -183 11 -194 21 -4 5 25 250 33 276 5 14 67 10 169 -11z"/>
<path d="M8190 19126 l-235 -42 0 -35 c0 -33 1 -34 42 -34 23 0 47 -5 53 -11
12 -12 123 -583 116 -601 -3 -6 -24 -17 -47 -23 -39 -11 -41 -13 -35 -42 3
-18 8 -34 11 -37 8 -7 471 79 542 102 68 22 143 78 168 127 57 110 -1 250
-117 281 l-46 12 34 35 c31 32 54 84 54 122 0 72 -57 150 -127 174 -70 24
-155 18 -413 -28z m320 -62 c93 -37 95 -160 3 -211 -40 -23 -244 -69 -266 -60
-9 3 -41 145 -51 231 -1 5 55 20 124 32 156 28 142 27 190 8z m103 -341 c35
-18 67 -69 67 -109 0 -35 -32 -88 -71 -116 -27 -20 -269 -74 -292 -65 -11 4
-57 211 -57 258 0 14 80 32 240 52 35 5 80 -3 113 -20z"/>
<path d="M11585 19135 c-3 -8 -7 -21 -9 -29 -6 -18 10 -31 45 -40 15 -3 29
-12 32 -20 6 -14 -126 -576 -139 -598 -4 -6 -24 -8 -51 -4 -46 6 -50 3 -55
-44 -3 -23 2 -25 157 -61 88 -21 161 -36 163 -34 2 1 5 19 9 38 5 34 4 36 -30
42 -20 4 -40 12 -45 19 -6 7 2 59 21 141 17 72 32 131 33 133 2 4 357 -78 363
-83 5 -5 -49 -236 -60 -257 -7 -14 -20 -17 -57 -15 -46 2 -47 1 -50 -30 -3
-29 0 -33 35 -42 96 -25 275 -62 280 -58 3 3 6 20 6 38 2 29 -2 33 -31 41 -18
5 -35 15 -38 23 -6 16 120 556 138 588 8 16 17 18 54 13 43 -5 43 -5 50 30 3
19 5 37 2 39 -2 2 -73 20 -158 39 -165 38 -170 37 -170 -16 0 -21 6 -28 29
-33 53 -12 55 -23 26 -150 -17 -71 -32 -115 -39 -115 -18 0 -346 77 -352 82
-7 7 46 221 59 236 7 9 23 11 53 6 41 -6 42 -5 49 26 4 18 3 35 -1 39 -9 8
-279 71 -302 71 -7 0 -15 -7 -17 -15z"/>
<path d="M7628 18996 c-81 -22 -150 -44 -153 -48 -4 -4 -4 -21 0 -38 7 -31 8
-32 49 -26 32 5 46 3 55 -8 23 -27 170 -569 160 -588 -5 -9 -22 -19 -39 -23
-24 -5 -30 -12 -30 -33 0 -56 6 -57 171 -12 84 22 155 42 157 44 6 6 -10 76
-17 76 -3 0 -20 -4 -38 -9 -22 -6 -36 -6 -47 2 -16 12 -166 531 -166 574 0 18
9 28 34 38 19 8 37 18 39 22 6 11 -12 73 -21 72 -4 -1 -73 -20 -154 -43z"/>
<path d="M6988 18801 c-164 -58 -302 -111 -308 -117 -7 -7 -7 -20 1 -43 9 -27
15 -32 33 -26 61 17 83 17 91 -1 4 -11 14 -146 23 -302 17 -314 16 -321 -43
-349 l-35 -17 0 -113 0 -113 29 0 c16 0 36 -3 45 -6 13 -5 16 2 16 35 0 46 21
105 48 134 26 29 70 48 302 132 278 100 322 102 410 14 l31 -32 27 20 c15 11
28 27 30 35 1 8 -29 51 -69 97 -52 60 -76 81 -88 76 -56 -22 -67 -19 -86 27
-53 134 -195 521 -195 534 0 8 16 22 35 30 19 8 35 21 35 29 0 18 -21 65 -29
64 -3 0 -140 -49 -303 -108z m225 -343 c90 -242 103 -285 91 -294 -16 -13
-325 -124 -343 -124 -6 0 -13 10 -15 23 -4 18 -22 365 -29 566 l-2 43 90 33
c50 18 93 33 96 34 3 0 53 -126 112 -281z"/>
<path d="M12591 18879 c-13 -38 -9 -45 35 -64 19 -8 34 -19 34 -25 0 -11 -181
-509 -201 -553 -13 -29 -19 -30 -84 -12 -16 5 -23 0 -31 -22 -6 -16 -9 -33 -7
-40 6 -16 302 -118 313 -107 5 5 12 21 15 36 6 24 2 29 -35 48 -28 14 -40 27
-38 38 3 17 474 269 484 259 6 -6 -131 -376 -144 -389 -7 -7 -23 -6 -47 2 -43
14 -55 7 -58 -36 -2 -28 0 -29 147 -82 82 -29 153 -49 157 -45 5 5 11 23 15
40 6 28 3 32 -30 43 -24 8 -36 18 -36 30 0 22 196 560 209 573 5 5 24 4 46 -3
41 -13 50 -8 60 32 5 20 2 29 -13 37 -44 24 -286 101 -294 93 -4 -4 -10 -21
-14 -38 -5 -26 -2 -31 28 -44 26 -12 33 -21 33 -43 0 -27 -13 -35 -242 -152
-134 -68 -243 -122 -243 -120 0 20 145 393 156 401 11 9 24 9 50 1 41 -12 54
-4 57 38 2 28 0 30 -148 82 -82 29 -153 53 -157 53 -3 0 -11 -14 -17 -31z"/>
<path d="M13847 18652 c-31 -34 -32 -77 -3 -136 31 -63 70 -99 143 -133 95
-44 218 -40 271 9 27 26 30 89 6 109 -26 22 -77 16 -115 -14 -96 -73 -189 -21
-189 106 0 30 -6 49 -18 60 -25 22 -75 22 -95 -1z"/>
<path d="M6308 18537 c-111 -54 -120 -64 -97 -110 7 -12 13 -23 14 -25 2 -2
17 4 35 13 18 9 35 14 38 11 10 -10 15 -349 6 -344 -71 39 -293 175 -304 186
-10 9 -11 16 -4 19 32 12 47 31 41 54 -16 57 -17 57 -159 -11 -73 -35 -138
-71 -145 -78 -10 -12 -9 -21 3 -44 13 -26 19 -29 42 -23 15 5 34 8 43 7 8 0
123 -65 255 -144 l239 -144 3 -70 c2 -48 -2 -75 -11 -88 -14 -19 -18 -19 -70
-6 -50 11 -59 11 -82 -4 -24 -16 -29 -30 -25 -71 8 -83 149 -84 236 -1 37 36
43 48 49 99 4 32 5 93 1 135 -3 42 -7 189 -8 325 l-3 249 34 27 c33 27 33 27
17 59 -9 18 -22 32 -29 31 -6 0 -60 -24 -119 -52z"/>
<path d="M13582 18535 c-18 -40 -15 -53 18 -70 17 -9 30 -22 30 -30 0 -19
-246 -513 -267 -537 -14 -16 -18 -16 -56 -1 -38 15 -41 15 -53 -2 -34 -46 -22
-57 133 -133 l148 -72 16 32 c21 40 17 51 -26 71 -29 14 -33 20 -27 38 7 18
57 40 260 114 139 51 252 90 252 87 0 -14 -187 -365 -197 -369 -6 -2 -25 3
-42 11 -16 9 -34 16 -39 16 -10 0 -32 -44 -32 -65 0 -9 59 -43 147 -85 80 -38
147 -69 148 -68 2 2 10 17 19 35 14 28 14 33 1 47 -8 8 -24 18 -35 21 -11 3
-20 13 -20 22 0 18 267 540 280 548 5 3 23 -1 39 -10 17 -8 34 -15 39 -15 10
0 32 44 32 65 0 11 -289 161 -295 153 -33 -42 -31 -83 4 -98 16 -6 32 -18 35
-25 12 -32 -35 -57 -259 -139 -126 -46 -238 -87 -247 -91 -19 -8 150 334 182
368 16 17 19 17 55 3 21 -9 39 -15 40 -14 10 13 25 50 25 63 0 11 -46 38 -146
86 -80 38 -147 69 -148 69 -2 0 -8 -11 -14 -25z"/>
<path d="M5205 17929 c-143 -87 -262 -164 -264 -170 -5 -16 20 -59 35 -59 7 0
26 8 43 17 27 16 32 16 45 3 8 -8 87 -127 176 -265 l160 -250 -30 -26 c-16
-14 -30 -33 -30 -41 0 -30 12 -48 31 -48 10 0 102 51 204 113 306 184 347 226
353 352 5 86 -17 138 -75 182 -34 26 -43 28 -132 28 -91 0 -100 -2 -166 -37
-39 -20 -108 -59 -155 -87 l-84 -50 -63 97 c-34 53 -63 102 -63 107 0 6 39 34
88 62 175 103 193 107 277 64 33 -17 65 -31 71 -31 15 0 44 34 44 52 0 19
-167 148 -189 147 -9 0 -133 -72 -276 -160z m533 -286 c34 -21 62 -73 62 -116
0 -31 -8 -46 -42 -82 -44 -45 -210 -155 -235 -155 -7 0 -46 51 -87 113 l-73
112 91 55 c164 98 222 113 284 73z"/>
<path d="M9658 17873 c12 -2 32 -2 45 0 12 2 2 4 -23 4 -25 0 -35 -2 -22 -4z"/>
<path d="M9878 17873 c68 -2 176 -2 240 0 64 1 9 3 -123 3 -132 0 -185 -2
-117 -3z"/>
<path d="M10283 17873 c15 -2 39 -2 55 0 15 2 2 4 -28 4 -30 0 -43 -2 -27 -4z"/>
<path d="M9473 17863 c9 -2 25 -2 35 0 9 3 1 5 -18 5 -19 0 -27 -2 -17 -5z"/>
<path d="M10483 17863 c9 -2 25 -2 35 0 9 3 1 5 -18 5 -19 0 -27 -2 -17 -5z"/>
<path d="M9348 17853 c6 -2 18 -2 25 0 6 3 1 5 -13 5 -14 0 -19 -2 -12 -5z"/>
<path d="M10628 17853 c6 -2 18 -2 25 0 6 3 1 5 -13 5 -14 0 -19 -2 -12 -5z"/>
<path d="M9238 17843 c7 -3 16 -2 19 1 4 3 -2 6 -13 5 -11 0 -14 -3 -6 -6z"/>
<path d="M10738 17843 c6 -2 18 -2 25 0 6 3 1 5 -13 5 -14 0 -19 -2 -12 -5z"/>
<path d="M9148 17833 c7 -3 16 -2 19 1 4 3 -2 6 -13 5 -11 0 -14 -3 -6 -6z"/>
<path d="M10833 17833 c9 -2 23 -2 30 0 6 3 -1 5 -18 5 -16 0 -22 -2 -12 -5z"/>
<path d="M10918 17823 c6 -2 18 -2 25 0 6 3 1 5 -13 5 -14 0 -19 -2 -12 -5z"/>
<path d="M8978 17813 c7 -3 16 -2 19 1 4 3 -2 6 -13 5 -11 0 -14 -3 -6 -6z"/>
<path d="M11003 17813 c9 -2 23 -2 30 0 6 3 -1 5 -18 5 -16 0 -22 -2 -12 -5z"/>
<path d="M8908 17803 c7 -3 16 -2 19 1 4 3 -2 6 -13 5 -11 0 -14 -3 -6 -6z"/>
<path d="M11073 17803 c9 -2 23 -2 30 0 6 3 -1 5 -18 5 -16 0 -22 -2 -12 -5z"/>
<path d="M9288 17793 c6 -2 18 -2 25 0 6 3 1 5 -13 5 -14 0 -19 -2 -12 -5z"/>
<path d="M10540 17796 c0 -9 30 -14 35 -6 4 6 -3 10 -14 10 -12 0 -21 -2 -21
-4z"/>
<path d="M11138 17793 c6 -2 18 -2 25 0 6 3 1 5 -13 5 -14 0 -19 -2 -12 -5z"/>
<path d="M8778 17783 c7 -3 16 -2 19 1 4 3 -2 6 -13 5 -11 0 -14 -3 -6 -6z"/>
<path d="M11203 17783 c9 -2 23 -2 30 0 6 3 -1 5 -18 5 -16 0 -22 -2 -12 -5z"/>
<path d="M8718 17773 c7 -3 16 -2 19 1 4 3 -2 6 -13 5 -11 0 -14 -3 -6 -6z"/>
<path d="M11300 17766 c25 -8 70 -18 100 -24 222 -45 373 -80 360 -85 -8 -2
-31 -10 -50 -15 l-35 -11 40 6 c22 3 45 10 52 15 11 9 175 -26 198 -42 6 -4
30 -10 55 -14 25 -4 110 -27 190 -52 80 -25 169 -53 198 -62 38 -11 49 -18 40
-24 -9 -7 -7 -8 7 -4 25 7 118 -27 108 -39 -5 -4 -2 -5 5 -1 14 8 142 -34 142
-46 0 -5 9 -8 21 -8 11 0 17 -4 14 -10 -3 -5 0 -7 7 -5 19 8 140 -39 131 -50
-5 -4 -3 -5 4 -1 6 3 54 -12 105 -35 51 -22 114 -50 140 -61 27 -11 45 -25 41
-31 -4 -6 -1 -7 6 -2 13 7 91 -22 91 -35 0 -4 6 -7 13 -7 21 0 417 -203 448
-229 8 -8 21 -14 27 -14 7 0 12 -4 12 -10 0 -5 7 -10 15 -10 24 0 66 -31 58
-43 -3 -5 -1 -7 5 -4 9 6 39 -10 170 -88 44 -26 44 -26 25 -42 -17 -13 -16
-13 4 -4 28 14 34 14 31 -1 -2 -7 6 -13 17 -14 31 -2 156 -84 148 -96 -3 -6
-2 -8 4 -5 13 8 74 -30 71 -45 -2 -7 8 -13 22 -14 13 -1 26 -7 28 -13 2 -6 9
-11 17 -11 7 0 18 -7 25 -15 10 -13 9 -15 -10 -15 -19 0 -20 -2 -10 -15 7 -8
18 -15 24 -15 7 0 6 4 -2 9 -11 7 -10 10 3 15 9 3 18 6 19 6 3 0 13 -8 61 -48
6 -5 23 -17 38 -26 30 -20 27 -42 -4 -26 -10 6 -19 8 -19 6 0 -3 10 -10 21
-17 15 -8 23 -8 28 0 4 7 29 -6 66 -35 33 -25 85 -64 115 -87 30 -22 61 -47
68 -54 8 -7 29 -25 48 -39 18 -14 32 -31 31 -37 -1 -7 6 -11 17 -9 13 3 17 -1
13 -12 -3 -8 -1 -18 5 -22 7 -4 8 -3 4 4 -13 21 10 13 32 -11 16 -17 19 -26
11 -34 -8 -8 -7 -13 2 -18 7 -5 10 -4 5 3 -9 15 7 23 24 12 12 -7 12 -11 -1
-27 -13 -16 -13 -17 4 -4 15 12 20 11 37 -4 11 -10 18 -21 15 -25 -6 -10 24
-50 38 -49 9 0 9 2 0 6 -15 5 -18 27 -4 21 21 -7 220 -201 215 -209 -3 -5 1
-9 9 -9 7 0 26 -13 42 -30 24 -25 26 -30 12 -36 -9 -3 -14 -11 -11 -16 4 -6
11 -4 16 7 9 15 16 11 59 -31 26 -26 46 -51 44 -55 -3 -3 4 -9 15 -12 12 -3
20 -14 20 -25 0 -11 6 -19 14 -18 17 1 189 -191 182 -203 -3 -5 0 -8 7 -7 17
1 119 -112 112 -125 -4 -5 -3 -8 2 -7 13 5 54 -42 47 -53 -4 -8 -9 -7 -15 2
-5 8 -9 9 -9 3 0 -18 12 -25 25 -14 9 7 22 -2 49 -34 36 -45 45 -63 24 -50 -7
5 -8 3 -4 -5 5 -7 10 -10 13 -8 12 13 127 -138 118 -153 -4 -6 -2 -9 3 -8 12
4 82 -72 82 -89 0 -7 4 -13 8 -13 11 0 88 -122 84 -133 -1 -5 3 -5 9 -1 9 5
10 2 5 -12 -4 -10 -4 -15 0 -11 11 11 34 -13 34 -35 0 -10 5 -16 10 -13 6 3
10 0 10 -8 0 -8 9 -22 20 -32 12 -10 18 -25 15 -32 -2 -8 0 -11 5 -8 6 3 13
-2 17 -12 3 -10 19 -33 34 -52 23 -28 26 -38 17 -54 -5 -11 -6 -17 -1 -14 5 3
15 2 23 -3 12 -7 12 -12 2 -22 -15 -15 -16 -28 -1 -28 5 0 8 4 4 9 -10 17 12
21 25 6 7 -8 9 -15 4 -15 -5 0 -4 -4 1 -8 19 -14 35 -51 29 -69 -4 -13 -3 -15
4 -5 7 11 14 6 31 -21 11 -19 21 -39 21 -44 0 -6 7 -16 15 -23 9 -7 13 -20 10
-29 -2 -9 0 -23 6 -31 8 -12 9 -9 4 9 -5 16 -4 21 4 17 6 -4 11 -12 11 -17 0
-5 12 -28 26 -50 14 -22 26 -49 27 -59 1 -10 6 -18 11 -17 5 1 12 -6 14 -17 2
-11 0 -16 -6 -12 -6 3 -13 2 -17 -3 -3 -6 3 -8 14 -6 16 3 30 -16 75 -105 31
-60 53 -116 50 -124 -3 -7 -1 -17 5 -21 7 -4 8 0 4 11 -4 12 -3 15 5 10 7 -4
12 -16 12 -26 0 -10 5 -22 11 -26 6 -3 9 -15 6 -25 -3 -11 -2 -17 3 -14 4 3
17 -13 29 -35 11 -22 17 -40 13 -40 -4 0 -2 -4 3 -8 6 -4 15 -18 22 -32 47
-102 52 -118 48 -149 -4 -32 -3 -33 10 -15 15 19 15 19 8 0 -5 -14 -3 -17 7
-11 10 6 12 3 8 -13 -3 -12 -3 -22 1 -24 9 -4 72 -135 69 -145 -1 -4 6 -23 15
-41 10 -18 15 -38 11 -44 -4 -7 -3 -8 4 -4 8 4 12 0 12 -12 0 -10 3 -22 7 -25
12 -12 43 -110 37 -118 -3 -5 -1 -9 3 -9 11 0 33 -59 33 -87 0 -12 5 -23 10
-25 6 -2 12 -13 13 -26 0 -12 5 -22 9 -22 4 0 8 -8 8 -17 0 -9 9 -44 20 -77
38 -115 41 -126 35 -136 -3 -5 -1 -10 6 -10 6 0 9 -8 6 -20 -3 -11 -1 -18 3
-15 5 3 12 -11 15 -32 4 -21 12 -54 20 -73 12 -31 44 -156 60 -235 3 -16 12
-52 19 -80 17 -61 38 -162 66 -310 7 -33 16 -78 21 -100 4 -22 10 -62 13 -90
2 -27 6 -57 9 -65 8 -22 20 -127 21 -187 1 -28 4 -49 7 -47 4 2 7 -13 8 -34 1
-20 6 -75 12 -122 11 -86 18 -202 22 -342 1 -42 6 -74 10 -71 7 4 3 -659 -4
-732 -1 -11 -6 -85 -10 -165 -5 -80 -11 -156 -14 -170 -3 -14 -7 -62 -9 -107
-2 -45 -7 -87 -12 -94 -4 -7 -7 -30 -5 -51 1 -21 -2 -38 -7 -38 -4 0 -8 -12
-8 -27 -1 -86 -5 -114 -14 -108 -5 3 -7 0 -5 -7 3 -8 1 -45 -5 -83 -6 -39 -14
-89 -17 -112 -3 -24 -9 -41 -13 -38 -4 3 -7 -12 -7 -33 1 -48 -45 -262 -55
-256 -4 3 -5 -2 -2 -10 7 -19 -20 -134 -102 -431 -86 -313 -241 -736 -385
-1049 -38 -82 -67 -151 -65 -153 6 -6 136 285 213 475 280 698 442 1380 520
2187 25 263 25 1042 0 1310 -103 1075 -381 2021 -862 2925 -525 988 -1279
1867 -2180 2540 -210 157 -443 313 -653 439 -762 455 -1596 771 -2480 941
-164 32 -205 37 -132 16z m3780 -1836 c0 -5 -2 -10 -4 -10 -3 0 -8 5 -11 10
-3 6 -1 10 4 10 6 0 11 -4 11 -10z"/>
<path d="M8470 17730 c-941 -195 -1802 -546 -2600 -1059 -96 -62 -188 -124
-205 -138 -40 -34 -25 -24 145 88 162 107 354 222 538 324 114 62 503 254 527
260 5 1 27 9 47 19 21 9 44 16 53 16 8 0 15 5 15 11 0 6 9 8 23 4 16 -5 18 -4
8 4 -12 8 -9 11 15 17 16 4 34 10 39 14 30 21 150 60 168 55 18 -5 19 -4 7 5
-12 10 -11 11 7 7 12 -3 21 -1 20 5 -2 9 18 18 133 57 36 12 74 26 85 31 55
22 335 110 430 135 32 8 72 15 88 15 15 0 26 4 23 8 -6 10 262 77 271 68 3 -3
12 -1 19 5 7 5 90 26 185 44 159 32 211 46 163 44 -10 0 -102 -18 -204 -39z"/>
<path d="M8873 17763 c15 -2 39 -2 55 0 15 2 2 4 -28 4 -30 0 -43 -2 -27 -4z"/>
<path d="M11128 17733 c6 -2 18 -2 25 0 6 3 1 5 -13 5 -14 0 -19 -2 -12 -5z"/>
<path d="M8488 17703 c6 -2 18 -2 25 0 6 3 1 5 -13 5 -14 0 -19 -2 -12 -5z"/>
<path d="M15111 17668 c-12 -19 -10 -24 18 -50 35 -33 36 -37 17 -63 -13 -18
-14 -18 -42 2 -16 11 -54 33 -84 49 -49 26 -65 29 -151 29 -88 0 -99 -2 -137
-28 -118 -77 -151 -224 -74 -330 16 -23 58 -66 93 -96 35 -30 65 -57 67 -61 1
-3 -4 -15 -12 -25 -14 -19 -16 -19 -46 -2 -44 24 -68 22 -82 -8 -10 -22 -9
-28 8 -39 10 -8 64 -46 119 -85 104 -74 145 -86 168 -50 8 13 3 23 -24 47 -31
28 -32 32 -20 54 l13 25 75 -43 c111 -63 188 -76 280 -49 94 28 165 124 166
224 0 87 -42 154 -155 244 l-56 45 22 21 c20 19 24 19 42 6 35 -27 94 -14 94
21 0 17 -240 184 -265 184 -11 0 -26 -10 -34 -22z m-126 -147 c108 -52 108
-38 0 -186 -53 -71 -102 -131 -109 -133 -7 -1 -35 22 -63 51 -59 63 -73 105
-50 159 27 65 105 136 152 138 6 0 37 -13 70 -29z m323 -254 c20 -39 22 -50
13 -84 -12 -45 -59 -109 -99 -135 -37 -25 -78 -22 -137 8 -100 51 -101 36 14
189 l102 136 42 -34 c23 -19 52 -55 65 -80z"/>
<path d="M11663 17663 c9 -2 25 -2 35 0 9 3 1 5 -18 5 -19 0 -27 -2 -17 -5z"/>
<path d="M8238 17643 c7 -3 16 -2 19 1 4 3 -2 6 -13 5 -11 0 -14 -3 -6 -6z"/>
<path d="M8320 17640 c0 -5 5 -10 11 -10 5 0 7 5 4 10 -3 6 -8 10 -11 10 -2 0
-4 -4 -4 -10z"/>
<path d="M8278 17633 c7 -3 16 -2 19 1 4 3 -2 6 -13 5 -11 0 -14 -3 -6 -6z"/>
<path d="M8168 17623 c7 -3 16 -2 19 1 4 3 -2 6 -13 5 -11 0 -14 -3 -6 -6z"/>
<path d="M7975 17560 c-3 -5 -2 -10 4 -10 5 0 18 -3 28 -7 17 -6 17 -6 1 10
-19 20 -24 21 -33 7z"/>
<path d="M12045 17560 c-16 -7 -14 -8 12 -7 17 1 29 5 26 10 -5 9 -12 8 -38
-3z"/>
<path d="M7838 17543 c7 -3 16 -2 19 1 4 3 -2 6 -13 5 -11 0 -14 -3 -6 -6z"/>
<path d="M12148 17543 c7 -3 16 -2 19 1 4 3 -2 6 -13 5 -11 0 -14 -3 -6 -6z"/>
<path d="M7735 17500 c3 -5 10 -10 16 -10 5 0 9 5 9 10 0 6 -7 10 -16 10 -8 0
-12 -4 -9 -10z"/>
<path d="M12328 17483 c7 -3 16 -2 19 1 4 3 -2 6 -13 5 -11 0 -14 -3 -6 -6z"/>
<path d="M12278 17473 c7 -3 16 -2 19 1 4 3 -2 6 -13 5 -11 0 -14 -3 -6 -6z"/>
<path d="M7658 17463 c7 -3 16 -2 19 1 4 3 -2 6 -13 5 -11 0 -14 -3 -6 -6z"/>
<path d="M4075 17410 c-17 -19 -18 -26 -6 -86 13 -61 12 -68 -6 -92 -11 -14
-31 -35 -46 -46 -25 -18 -31 -19 -70 -7 -65 20 -125 25 -142 11 -17 -14 -20
-62 -5 -90 25 -47 142 -50 230 -5 58 30 136 114 150 163 15 54 12 124 -6 150
-20 29 -74 30 -99 2z"/>
<path d="M7488 17423 c7 -3 16 -2 19 1 4 3 -2 6 -13 5 -11 0 -14 -3 -6 -6z"/>
<path d="M4293 17287 c-62 -50 -112 -99 -112 -108 -1 -16 29 -49 43 -49 4 0
21 9 37 21 28 20 31 20 56 4 l26 -17 -8 -226 c-4 -123 -10 -245 -14 -269 l-6
-45 -120 138 c-66 76 -132 154 -148 173 l-28 34 28 29 c23 24 25 32 17 55 -5
15 -17 29 -26 31 -10 2 -64 -36 -127 -88 -95 -79 -111 -96 -111 -121 0 -38 24
-48 62 -26 17 9 36 17 43 17 12 0 388 -420 408 -457 6 -10 2 -22 -13 -38 -28
-30 -25 -79 6 -83 24 -3 244 172 244 195 0 24 -20 53 -36 53 -8 0 -28 -10 -45
-22 l-29 -22 -22 21 c-21 21 -21 22 -9 280 7 142 14 259 15 261 2 1 69 -73
150 -165 l147 -168 -31 -27 c-16 -15 -30 -34 -30 -41 0 -15 31 -47 46 -47 19
0 229 183 232 202 4 23 -14 48 -35 48 -8 0 -26 -9 -40 -20 -14 -11 -29 -20
-33 -20 -7 0 -378 420 -408 462 -11 15 -9 21 13 40 38 33 29 88 -14 88 -9 0
-66 -42 -128 -93z"/>
<path d="M7185 17320 c-18 -8 -17 -9 8 -9 15 -1 27 4 27 9 0 12 -8 12 -35 0z"/>
<path d="M7075 17270 c-3 -5 -1 -10 4 -10 6 0 11 5 11 10 0 6 -2 10 -4 10 -3
0 -8 -4 -11 -10z"/>
<path d="M7040 17256 c0 -2 7 -7 16 -10 8 -3 12 -2 9 4 -6 10 -25 14 -25 6z"/>
<path d="M12960 17229 c0 -5 9 -9 20 -9 11 0 20 2 20 4 0 2 -9 6 -20 9 -11 3
-20 1 -20 -4z"/>
<path d="M7008 17223 c6 -2 18 -2 25 0 6 3 1 5 -13 5 -14 0 -19 -2 -12 -5z"/>
<path d="M13103 17183 c-13 -2 -23 -9 -23 -14 0 -14 26 -11 40 6 7 8 11 14 9
14 -2 -1 -14 -4 -26 -6z"/>
<path d="M15643 16879 c-331 -170 -333 -170 -368 -158 -39 14 -67 5 -73 -23
-2 -9 32 -46 79 -87 62 -56 87 -71 106 -69 38 4 52 32 29 57 -29 32 -15 51 71
98 l83 45 95 -83 c52 -46 95 -86 95 -89 0 -11 -72 -175 -81 -184 -5 -6 -16 -3
-27 7 -33 30 -83 16 -81 -22 0 -22 193 -185 221 -189 34 -4 54 32 33 61 -8 12
-15 29 -15 39 0 10 59 163 131 341 72 177 134 330 137 340 6 24 -54 87 -82 86
-12 0 -171 -77 -353 -170z m213 -84 c-29 -69 -55 -127 -57 -130 -3 -2 -36 24
-74 59 l-69 62 125 67 c68 36 125 66 125 66 1 1 -22 -55 -50 -124z"/>
<path d="M13473 17016 c18 -14 18 -15 0 -26 -17 -11 -17 -11 0 -6 10 3 21 6
23 6 13 0 1 21 -18 30 -21 10 -22 10 -5 -4z"/>
<path d="M13580 16940 c0 -5 5 -10 11 -10 5 0 7 5 4 10 -3 6 -8 10 -11 10 -2
0 -4 -4 -4 -10z"/>
<path d="M13626 16915 c10 -8 23 -15 28 -15 6 0 1 7 -10 15 -10 8 -23 15 -28
15 -6 0 -1 -7 10 -15z"/>
<path d="M13759 16833 c-13 -16 -12 -17 4 -4 16 13 21 21 13 21 -2 0 -10 -8
-17 -17z"/>
<path d="M13880 16769 c0 -5 5 -7 10 -4 6 3 10 8 10 11 0 2 -4 4 -10 4 -5 0
-10 -5 -10 -11z"/>
<path d="M3488 16591 c-54 -60 -98 -118 -98 -128 0 -11 11 -26 24 -33 22 -11
28 -10 56 14 31 25 33 26 60 9 18 -10 30 -27 34 -47 12 -71 57 -488 53 -492
-7 -7 -337 275 -344 292 -3 8 2 23 11 33 23 25 20 64 -5 80 -19 11 -24 10 -39
-6 -155 -169 -181 -203 -178 -229 2 -15 11 -32 20 -38 14 -8 23 -5 48 19 28
27 32 28 55 15 22 -14 404 -334 453 -380 l23 -22 -20 -22 c-26 -27 -27 -58 -3
-79 10 -10 21 -17 23 -17 3 0 49 50 103 110 78 89 97 115 94 137 -2 14 -11 31
-20 37 -14 8 -23 5 -48 -19 -29 -28 -32 -29 -58 -15 -26 15 -27 18 -54 255
-16 132 -27 250 -26 263 3 20 24 5 171 -119 92 -78 167 -147 167 -154 0 -7 -7
-18 -15 -25 -23 -19 -19 -67 6 -81 17 -8 24 -8 34 3 110 119 185 210 185 226
0 10 -9 27 -20 37 -20 18 -21 18 -50 -10 -25 -24 -33 -27 -52 -18 -19 9 -418
341 -467 389 -13 12 -12 17 7 37 27 29 28 63 3 77 -11 5 -23 10 -28 10 -4 0
-52 -49 -105 -109z"/>
<path d="M14096 16636 c21 -15 30 -14 19 3 -3 6 -14 11 -23 11 -13 0 -13 -2 4
-14z"/>
<path d="M16379 16634 c-11 -13 -9 -22 9 -57 l22 -42 -33 -183 c-19 -100 -36
-184 -38 -186 -2 -2 -92 -8 -199 -14 -202 -11 -218 -9 -272 30 -20 14 -44 5
-62 -25 -16 -24 158 -199 193 -195 39 5 48 31 22 64 l-23 29 44 6 c23 4 98 10
165 14 115 7 121 6 118 -11 -3 -11 -11 -57 -20 -104 -9 -47 -21 -109 -26 -138
l-11 -54 -22 21 c-36 34 -76 21 -76 -23 0 -22 185 -219 211 -224 8 -2 24 6 34
18 18 20 18 21 -3 59 l-22 38 35 194 c19 107 37 204 40 215 5 21 12 22 184 29
173 7 181 6 209 -14 45 -32 92 -23 92 17 0 25 -172 193 -194 190 -33 -5 -43
-34 -23 -67 16 -28 16 -30 0 -35 -10 -3 -71 -8 -136 -12 l-118 -7 6 24 c3 13
14 69 25 123 11 55 22 102 25 104 3 3 14 -3 25 -13 16 -15 26 -17 48 -9 15 5
27 17 27 27 0 9 -44 64 -98 122 -101 108 -129 124 -158 89z"/>
<path d="M14075 16600 c-3 -5 1 -10 9 -10 9 0 16 5 16 10 0 6 -4 10 -9 10 -6
0 -13 -4 -16 -10z"/>
<path d="M14270 16536 c0 -2 7 -7 16 -10 8 -3 12 -2 9 4 -6 10 -25 14 -25 6z"/>
<path d="M5540 16449 c-88 -68 -98 -81 -22 -28 55 38 104 80 91 78 -2 0 -33
-23 -69 -50z"/>
<path d="M14330 16441 c0 -10 19 -25 25 -20 1 2 -3 10 -11 17 -8 7 -14 8 -14
3z"/>
<path d="M5429 16363 c-13 -16 -12 -17 4 -4 9 7 17 15 17 17 0 8 -8 3 -21 -13z"/>
<path d="M5389 16333 c-13 -16 -12 -17 4 -4 9 7 17 15 17 17 0 8 -8 3 -21 -13z"/>
<path d="M5330 16289 l-35 -30 38 26 c33 24 43 35 34 35 -1 0 -18 -14 -37 -31z"/>
<path d="M14580 16286 c0 -2 7 -7 16 -10 8 -3 12 -2 9 4 -6 10 -25 14 -25 6z"/>
<path d="M5264 16238 l-19 -23 23 19 c21 18 27 26 19 26 -2 0 -12 -10 -23 -22z"/>
<path d="M5209 16193 l-24 -28 28 24 c15 14 27 26 27 28 0 8 -8 1 -31 -24z"/>
<path d="M14725 16190 c-3 -5 1 -10 10 -10 9 0 13 5 10 10 -3 6 -8 10 -10 10
-2 0 -7 -4 -10 -10z"/>
<path d="M5154 16148 l-19 -23 23 19 c12 11 22 21 22 23 0 8 -8 2 -26 -19z"/>
<path d="M5099 16103 l-24 -28 28 24 c15 14 27 26 27 28 0 8 -8 1 -31 -24z"/>
<path d="M14826 16111 c-3 -5 1 -12 10 -15 22 -8 25 -4 9 11 -8 7 -16 9 -19 4z"/>
<path d="M5029 16043 l-34 -38 38 34 c20 19 37 36 37 38 0 8 -8 0 -41 -34z"/>
<path d="M14885 16040 c-3 -5 -1 -10 4 -10 6 0 11 5 11 10 0 6 -2 10 -4 10 -3
0 -8 -4 -11 -10z"/>
<path d="M4959 15983 l-24 -28 28 24 c25 23 32 31 24 31 -2 0 -14 -12 -28 -27z"/>
<path d="M2837 15865 c-54 -74 -77 -114 -77 -135 0 -40 33 -50 66 -19 13 12
27 20 30 16 7 -7 83 -362 84 -389 0 -13 -34 6 -122 69 -68 47 -126 90 -130 96
-3 6 0 20 8 31 21 30 17 69 -7 84 -12 7 -22 12 -24 10 -2 -2 -42 -56 -89 -121
-90 -123 -103 -157 -65 -178 18 -9 25 -7 50 20 15 17 32 31 37 31 13 0 470
-315 502 -346 21 -21 23 -27 12 -44 -23 -37 -9 -90 23 -90 17 0 185 234 185
257 0 45 -42 56 -72 18 -11 -14 -28 -25 -39 -25 -19 0 -161 90 -173 109 -4 5
-9 30 -12 55 l-7 46 177 0 c147 0 176 -2 176 -14 0 -8 -4 -18 -10 -21 -20 -13
-11 -55 15 -67 22 -10 28 -9 39 8 8 10 50 69 95 129 86 118 99 155 60 176 -18
9 -25 7 -43 -15 -11 -14 -34 -30 -50 -36 -15 -6 -131 -13 -256 -17 -218 -6
-228 -5 -233 13 -3 10 -17 85 -32 166 l-27 147 21 44 c11 24 21 51 21 60 0 15
-28 37 -47 37 -5 0 -43 -47 -86 -105z"/>
<path d="M4889 15923 c-13 -16 -12 -17 4 -4 16 13 21 21 13 21 -2 0 -10 -8
-17 -17z"/>
<path d="M4844 15878 l-19 -23 23 19 c12 11 22 21 22 23 0 8 -8 2 -26 -19z"/>
<path d="M15050 15892 c0 -12 14 -27 28 -29 17 -4 15 0 -8 20 -11 9 -20 13
-20 9z"/>
<path d="M15008 15863 c7 -3 16 -2 19 1 4 3 -2 6 -13 5 -11 0 -14 -3 -6 -6z"/>
<path d="M4740 15783 l-65 -68 68 65 c62 60 72 70 64 70 -1 0 -32 -30 -67 -67z"/>
<path d="M11985 15827 c-6 -15 19 -82 35 -92 5 -3 17 -21 25 -39 9 -19 25 -36
36 -39 13 -4 17 -10 12 -23 -4 -12 -3 -15 6 -10 10 7 33 -14 90 -80 5 -6 16
-25 25 -42 9 -18 20 -32 24 -32 7 0 37 -60 35 -70 -3 -10 30 -40 44 -40 7 0
13 -9 13 -19 0 -11 9 -23 20 -26 11 -4 18 -10 15 -15 -3 -5 3 -15 15 -22 11
-7 20 -18 20 -25 0 -7 11 -13 25 -13 38 0 44 42 11 83 -14 17 -52 66 -83 107
-32 41 -85 109 -118 150 -33 42 -80 101 -104 132 -54 68 -139 135 -146 115z"/>
<path d="M15146 15813 c-6 -14 -5 -15 5 -6 7 7 10 15 7 18 -3 3 -9 -2 -12 -12z"/>
<path d="M16922 15799 c-133 -23 -278 -138 -321 -254 -63 -169 -25 -323 114
-454 65 -62 117 -86 211 -101 187 -29 384 72 466 238 31 62 33 74 33 167 0 82
-4 109 -23 148 -86 189 -279 291 -480 256z m262 -143 c80 -47 139 -138 139
-212 0 -133 -179 -304 -353 -336 -77 -15 -136 2 -196 55 -149 132 -108 326 98
458 116 75 224 87 312 35z"/>
<path d="M15196 15778 c3 -5 10 -6 15 -3 13 9 11 12 -6 12 -8 0 -12 -4 -9 -9z"/>
<path d="M12296 15724 c-7 -19 9 -50 33 -63 38 -21 264 -90 361 -111 19 -4
134 -33 255 -65 457 -118 732 -185 783 -191 47 -6 52 -5 52 13 0 39 -36 68
-112 91 -93 28 -306 87 -423 117 -122 31 -302 80 -592 159 -253 69 -345 82
-357 50z"/>
<path d="M15220 15731 c0 -6 5 -13 10 -16 6 -3 10 1 10 9 0 9 -4 16 -10 16 -5
0 -10 -4 -10 -9z"/>
<path d="M15290 15674 c0 -13 18 -39 24 -34 2 3 -2 14 -10 24 -8 11 -14 16
-14 10z"/>
<path d="M15372 15580 c7 -11 16 -20 20 -20 5 0 3 9 -4 20 -7 11 -16 20 -20
20 -5 0 -3 -9 4 -20z"/>
<path d="M4509 15553 c-13 -16 -12 -17 4 -4 16 13 21 21 13 21 -2 0 -10 -8
-17 -17z"/>
<path d="M4440 15485 c-24 -25 -42 -45 -39 -45 3 0 25 20 49 45 24 25 42 45
39 45 -3 0 -25 -20 -49 -45z"/>
<path d="M15456 15495 c4 -8 11 -15 16 -15 6 0 5 6 -2 15 -7 8 -14 15 -16 15
-2 0 -1 -7 2 -15z"/>
<path d="M15545 15399 c-9 -14 -2 -20 14 -10 8 6 9 11 3 15 -6 3 -14 1 -17 -5z"/>
<path d="M4314 15348 l-19 -23 23 19 c12 11 22 21 22 23 0 8 -8 2 -26 -19z"/>
<path d="M15607 15333 c-4 -3 -7 -11 -7 -17 0 -6 5 -5 12 2 6 6 9 14 7 17 -3
3 -9 2 -12 -2z"/>
<path d="M4924 15316 c-7 -19 13 -56 30 -56 8 0 27 -7 42 -15 16 -8 43 -15 60
-15 17 0 52 -11 78 -25 26 -14 57 -25 70 -25 12 0 31 -7 42 -15 10 -8 31 -15
45 -15 15 0 32 -7 39 -15 7 -8 22 -15 34 -15 11 0 34 -7 50 -15 15 -8 34 -15
41 -15 6 0 20 -9 30 -20 15 -17 96 -60 111 -60 16 0 -4 37 -45 82 -39 42 -73
66 -153 105 -193 96 -458 162 -474 119z"/>
<path d="M15629 15313 c-13 -17 -13 -17 6 -3 11 8 22 16 24 17 2 2 0 3 -6 3
-6 0 -17 -8 -24 -17z"/>
<path d="M15665 15310 c-3 -5 -1 -10 4 -10 6 0 11 5 11 10 0 6 -2 10 -4 10 -3
0 -8 -4 -11 -10z"/>
<path d="M4239 15263 c-13 -16 -12 -17 4 -4 9 7 17 15 17 17 0 8 -8 3 -21 -13z"/>
<path d="M7075 15240 c-9 -15 22 -114 45 -141 17 -21 21 -22 30 -9 15 22 12
45 -9 71 -10 13 -21 34 -25 46 -9 28 -32 47 -41 33z"/>
<path d="M4184 15198 l-19 -23 23 19 c12 11 22 21 22 23 0 8 -8 2 -26 -19z"/>
<path d="M15780 15176 c0 -2 7 -9 15 -16 13 -11 14 -10 9 4 -5 14 -24 23 -24
12z"/>
<path d="M4129 15133 l-24 -28 28 24 c25 23 32 31 24 31 -2 0 -14 -12 -28 -27z"/>
<path d="M17653 15128 c-27 -13 -28 -25 -8 -52 23 -31 18 -53 -18 -75 -19 -11
-141 -82 -273 -156 l-239 -136 -26 31 c-14 16 -33 30 -41 30 -29 0 -48 -12
-48 -31 0 -16 159 -289 232 -398 77 -114 150 -161 252 -161 124 0 201 71 201
185 l0 61 25 -13 c94 -49 229 -7 266 84 18 43 18 120 -1 174 -25 70 -267 469
-285 468 -8 0 -25 -5 -37 -11z m143 -329 c81 -140 89 -163 67 -208 -11 -22
-34 -45 -61 -59 -37 -21 -46 -22 -78 -12 -19 7 -50 26 -67 44 -32 32 -137 195
-137 212 0 8 197 123 211 124 3 0 32 -46 65 -101z m-307 -153 c67 -109 91
-164 91 -204 0 -78 -68 -138 -147 -129 -36 4 -54 13 -84 43 -46 47 -151 213
-147 232 3 13 211 141 230 142 4 0 29 -38 57 -84z"/>
<path d="M4084 15078 l-19 -23 23 19 c12 11 22 21 22 23 0 8 -8 2 -26 -19z"/>
<path d="M13190 15090 c-14 -8 4 -31 60 -75 14 -11 40 -39 59 -63 32 -41 61
-62 109 -76 13 -5 22 -3 22 3 0 17 -30 49 -105 109 -38 31 -73 61 -77 68 -14
22 -54 42 -68 34z"/>
<path d="M7160 15081 c0 -6 4 -13 10 -16 6 -3 7 1 4 9 -7 18 -14 21 -14 7z"/>
<path d="M6805 15039 c-39 -23 -122 -67 -185 -99 -125 -63 -164 -92 -173 -128
-6 -26 9 -79 29 -103 23 -26 17 -117 -11 -177 -34 -74 -155 -190 -268 -257
-28 -17 -52 -35 -54 -41 -2 -6 8 -23 21 -37 21 -22 34 -27 73 -27 54 0 74 11
154 85 163 151 206 220 195 306 -4 26 -13 60 -21 76 -8 15 -15 49 -15 75 0 53
12 65 115 112 88 41 134 64 190 96 72 42 131 40 219 -5 38 -19 76 -35 85 -35
9 0 21 -4 27 -9 14 -15 87 -23 103 -12 23 15 16 60 -14 91 -16 16 -31 27 -35
25 -13 -8 -108 25 -190 65 -108 55 -151 54 -245 -1z"/>
<path d="M4039 15023 c-13 -16 -12 -17 4 -4 9 7 17 15 17 17 0 8 -8 3 -21 -13z"/>
<path d="M12472 15031 c-18 -11 -129 -167 -146 -206 -35 -75 57 -100 125 -33
91 87 135 190 100 232 -14 17 -58 21 -79 7z"/>
<path d="M2673 14991 c-45 -21 -96 -79 -168 -196 l-47 -75 -37 22 c-159 96
-191 124 -161 143 18 11 11 64 -9 75 -11 5 -22 10 -24 10 -11 0 -167 -252
-167 -268 0 -21 19 -42 37 -42 7 0 26 14 41 31 34 38 -1 54 325 -144 221 -134
248 -153 242 -171 -18 -55 -17 -81 6 -94 12 -8 25 -10 28 -5 26 30 208 325
232 376 64 136 24 279 -95 336 -55 27 -145 28 -203 2z m134 -146 c57 -26 93
-71 93 -116 0 -28 -86 -177 -110 -192 -12 -7 -47 10 -136 65 l-121 73 42 63
c55 82 74 102 110 118 43 19 63 17 122 -11z"/>
<path d="M3999 14973 c-13 -16 -12 -17 4 -4 16 13 21 21 13 21 -2 0 -10 -8
-17 -17z"/>
<path d="M14418 14973 c6 -2 18 -2 25 0 6 3 1 5 -13 5 -14 0 -19 -2 -12 -5z"/>
<path d="M3959 14923 c-13 -16 -12 -17 4 -4 9 7 17 15 17 17 0 8 -8 3 -21 -13z"/>
<path d="M15940 14930 c0 -5 5 -10 10 -10 6 0 10 5 10 10 0 6 -4 10 -10 10 -5
0 -10 -4 -10 -10z"/>
<path d="M15980 14919 c0 -5 5 -7 10 -4 6 3 10 8 10 11 0 2 -4 4 -10 4 -5 0
-10 -5 -10 -11z"/>
<path d="M16005 14859 c-4 -6 -5 -12 -2 -15 2 -3 7 2 10 11 7 17 1 20 -8 4z"/>
<path d="M3899 14843 c-13 -16 -12 -17 4 -4 16 13 21 21 13 21 -2 0 -10 -8
-17 -17z"/>
<path d="M16027 14829 c7 -7 15 -10 18 -7 3 3 -2 9 -12 12 -14 6 -15 5 -6 -5z"/>
<path d="M3869 14803 c-13 -16 -12 -17 4 -4 16 13 21 21 13 21 -2 0 -10 -8
-17 -17z"/>
<path d="M16086 14777 c3 -10 9 -15 12 -12 3 3 0 11 -7 18 -10 9 -11 8 -5 -6z"/>
<path d="M16113 14758 c3 -9 1 -19 -6 -22 -9 -3 -9 -5 0 -5 18 -1 23 13 11 29
-8 12 -9 12 -5 -2z"/>
<path d="M12724 14694 c32 -127 279 -244 566 -268 41 -4 100 -11 130 -16 30
-5 89 -14 130 -20 41 -6 112 -20 157 -31 63 -16 87 -18 102 -9 38 20 25 47
-36 79 -63 31 -250 81 -305 81 -20 0 -58 4 -86 10 -28 5 -91 14 -139 20 -165
20 -377 92 -472 159 -40 29 -55 27 -47 -5z"/>
<path d="M3789 14693 c-13 -16 -12 -17 4 -4 16 13 21 21 13 21 -2 0 -10 -8
-17 -17z"/>
<path d="M16200 14610 c0 -5 5 -10 10 -10 6 0 10 5 10 10 0 6 -4 10 -10 10 -5
0 -10 -4 -10 -10z"/>
<path d="M5380 14569 c0 -5 5 -7 10 -4 6 3 10 8 10 11 0 2 -4 4 -10 4 -5 0
-10 -5 -10 -11z"/>
<path d="M5410 14553 c0 -4 11 -30 25 -56 25 -50 65 -79 126 -92 16 -4 31 -11
34 -16 4 -5 66 -9 138 -9 73 0 150 -5 172 -12 22 -6 82 -13 133 -17 84 -5 93
-4 98 13 11 35 -27 70 -98 88 -90 22 -225 38 -333 38 -109 0 -196 20 -287 68
-5 2 -8 0 -8 -5z"/>
<path d="M7735 14556 c-5 -2 -23 -7 -38 -10 -42 -10 -57 -56 -56 -168 1 -112
8 -142 35 -146 31 -5 60 44 66 111 3 32 10 63 17 70 20 20 181 22 1936 21
1736 -2 2641 -10 2708 -24 49 -10 58 8 31 59 -38 71 -13 68 -759 75 -895 8
-3927 17 -3940 12z"/>
<path d="M3629 14463 c-13 -16 -12 -17 4 -4 16 13 21 21 13 21 -2 0 -10 -8
-17 -17z"/>
<path d="M1880 14431 c-14 -28 -12 -51 5 -58 12 -4 9 -10 -15 -28 -45 -34 -87
-91 -111 -153 -31 -80 -31 -205 0 -285 74 -190 293 -306 498 -263 116 24 192
73 254 163 86 124 93 318 16 456 -24 43 -30 44 -74 17 l-32 -19 27 -58 c30
-67 41 -179 23 -236 -42 -126 -180 -203 -321 -177 -80 14 -192 73 -234 121
-78 91 -95 184 -52 273 45 92 125 136 246 136 73 0 80 5 80 60 0 32 3 31 -157
55 -131 19 -140 19 -153 -4z"/>
<path d="M16357 14413 c-4 -3 -7 -11 -7 -17 0 -6 5 -5 12 2 6 6 9 14 7 17 -3
3 -9 2 -12 -2z"/>
<path d="M14307 14359 c-20 -12 -47 -62 -81 -151 -13 -34 -38 -94 -56 -133
-18 -38 -88 -193 -156 -343 -129 -287 -158 -338 -201 -348 -47 -12 -161 12
-215 45 -27 17 -57 31 -66 31 -15 0 -15 -2 -2 -10 12 -8 13 -13 3 -29 -10 -17
-9 -20 12 -25 15 -4 22 -11 19 -20 -3 -8 8 -22 28 -34 19 -12 45 -30 57 -42
13 -11 31 -20 39 -20 8 0 36 -8 61 -17 30 -10 55 -13 67 -8 10 5 35 10 54 13
36 4 61 23 73 55 3 9 10 17 16 17 8 0 49 79 64 123 4 9 13 17 22 17 9 0 15 9
15 25 0 14 8 42 17 63 9 20 20 48 23 62 3 14 11 24 18 22 7 -1 12 6 12 15 0
24 28 98 61 159 15 29 25 55 22 58 -3 3 -1 12 5 19 15 17 72 129 72 140 0 4
13 35 30 69 16 33 28 64 25 68 -3 5 9 22 25 39 25 25 37 29 63 25 58 -10 117
-28 117 -37 0 -4 4 -6 8 -3 5 3 29 -1 54 -9 26 -7 56 -11 67 -8 14 4 21 1 21
-10 0 -11 22 -17 88 -26 171 -22 244 -6 249 53 1 16 10 34 20 42 17 13 17 13
1 14 -11 0 -18 8 -18 20 0 11 -9 28 -20 37 -11 10 -20 23 -20 30 0 17 -14 23
-30 13 -11 -7 -11 -11 0 -24 11 -14 10 -20 -6 -38 -11 -11 -34 -27 -53 -35
-34 -15 -48 -13 -171 19 -19 5 -104 27 -188 48 -155 41 -213 47 -245 29z"/>
<path d="M16380 14359 c0 -5 5 -7 10 -4 6 3 10 8 10 11 0 2 -4 4 -10 4 -5 0
-10 -5 -10 -11z"/>
<path d="M3550 14340 c-6 -11 -8 -20 -6 -20 3 0 10 9 16 20 6 11 8 20 6 20 -3
0 -10 -9 -16 -20z"/>
<path d="M18138 14317 c-34 -13 -40 -28 -25 -66 9 -25 9 -34 -3 -45 -8 -8
-138 -67 -289 -131 -202 -85 -277 -113 -286 -105 -7 6 -18 24 -25 40 -7 17
-13 30 -15 30 -15 0 -65 -24 -68 -34 -5 -13 122 -306 132 -306 3 0 21 9 39 20
l32 20 -15 37 c-15 35 -15 39 1 50 10 7 21 13 25 13 4 0 114 -38 245 -83 132
-46 245 -86 252 -88 13 -4 -366 -169 -388 -169 -8 0 -26 31 -45 77 -3 8 -65
-23 -70 -35 -4 -11 107 -276 124 -294 3 -4 21 0 40 8 35 15 35 18 16 81 -9 27
-20 21 303 157 139 59 261 106 270 104 9 -2 23 -17 32 -33 8 -17 16 -32 18
-34 4 -8 72 28 72 39 0 23 -126 290 -137 290 -7 0 -24 -5 -38 -12 -27 -12 -28
-18 -10 -75 5 -16 1 -25 -17 -37 -22 -14 -38 -10 -275 72 -139 48 -249 90
-245 94 7 7 344 151 381 163 16 5 24 -2 41 -35 16 -32 25 -40 38 -35 9 4 25
10 35 12 9 3 17 13 17 22 0 19 -122 302 -130 300 -3 -1 -17 -6 -32 -12z"/>
<path d="M7144 14288 c-42 -33 -50 -45 -81 -123 -39 -103 -32 -191 21 -234 26
-22 19 -28 -46 -41 -90 -17 -184 -65 -249 -127 -31 -29 -62 -53 -70 -53 -20 0
-39 -20 -39 -41 0 -30 57 -69 101 -69 33 0 45 7 81 45 23 25 48 45 54 45 6 0
23 9 37 20 32 26 126 56 191 63 32 3 55 11 63 23 23 32 19 40 -39 90 -24 20
-24 23 -16 103 5 47 19 104 32 134 61 136 60 134 42 162 -20 31 -45 32 -82 3z"/>
<path d="M3465 14204 c-9 -15 -12 -23 -6 -20 11 7 35 46 28 46 -3 0 -12 -12
-22 -26z"/>
<path d="M16440 14210 c0 -5 5 -10 10 -10 6 0 10 5 10 10 0 6 -4 10 -10 10 -5
0 -10 -4 -10 -10z"/>
<path d="M14380 14190 c0 -5 5 -10 10 -10 6 0 10 5 10 10 0 6 -4 10 -10 10 -5
0 -10 -4 -10 -10z"/>
<path d="M3436 14153 c-6 -14 -5 -15 5 -6 7 7 10 15 7 18 -3 3 -9 -2 -12 -12z"/>
<path d="M16500 14140 c0 -18 19 -40 35 -40 7 0 6 3 -1 8 -6 4 -16 16 -22 27
-8 15 -11 16 -12 5z"/>
<path d="M13240 14060 c-23 -21 -90 -63 -147 -92 -58 -29 -112 -63 -121 -76
-13 -20 -15 -88 -16 -492 l-1 -468 -23 -25 c-13 -14 -74 -47 -134 -74 -61 -26
-124 -60 -140 -74 l-28 -27 0 -610 c0 -335 3 -630 6 -656 8 -54 36 -79 61 -53
13 13 16 71 19 369 8 734 11 848 23 861 6 8 8 16 5 20 -3 3 3 3 15 0 14 -4 21
-1 21 10 0 16 67 47 103 47 12 0 35 11 51 25 33 29 46 31 46 10 0 -8 5 -15 10
-15 13 0 13 17 -1 25 -6 4 4 20 24 40 21 20 37 48 41 69 4 20 6 234 5 477 0
242 2 443 5 446 3 3 12 0 21 -7 13 -11 15 -8 15 19 0 28 3 31 30 31 17 0 30 5
30 10 0 6 7 10 15 10 8 0 15 5 15 10 0 6 6 10 13 10 16 0 89 38 102 53 15 18
53 37 71 37 8 0 48 -11 87 -24 40 -13 84 -27 100 -30 16 -4 27 -13 28 -24 0
-9 3 -12 5 -7 2 6 19 9 37 7 43 -5 72 17 64 50 -8 32 -69 64 -220 117 -152 53
-181 53 -237 1z"/>
<path d="M7552 14028 c-35 -35 14 -85 139 -146 115 -56 159 -54 159 7 0 20
-12 34 -48 57 -118 78 -220 112 -250 82z"/>
<path d="M8003 14000 c-67 -21 -65 -10 -61 -509 3 -420 4 -450 22 -469 15 -17
22 -19 36 -9 40 24 42 48 41 445 -1 445 -8 415 103 427 53 6 4313 -2 4531 -8
101 -3 174 45 127 84 -19 15 -70 17 -504 23 -266 3 -998 8 -1628 11 -630 3
-1480 7 -1890 10 -489 3 -756 1 -777 -5z"/>
<path d="M3336 13983 c-6 -14 -5 -15 5 -6 7 7 10 15 7 18 -3 3 -9 -2 -12 -12z"/>
<path d="M3315 13949 c-4 -6 -5 -12 -2 -15 2 -3 7 2 10 11 7 17 1 20 -8 4z"/>
<path d="M13408 13923 c6 -2 18 -2 25 0 6 3 1 5 -13 5 -14 0 -19 -2 -12 -5z"/>
<path d="M3285 13890 c-9 -16 -13 -30 -11 -30 3 0 12 14 21 30 9 17 13 30 11
30 -3 0 -12 -13 -21 -30z"/>
<path d="M6596 13860 c-27 -11 -65 -32 -85 -48 -20 -16 -55 -41 -78 -55 -69
-44 -51 -97 33 -97 47 0 76 10 109 40 11 10 36 20 55 22 31 3 37 9 57 51 28
59 28 69 5 90 -23 21 -35 21 -96 -3z"/>
<path d="M14240 13851 c0 -5 7 -11 15 -15 9 -3 15 0 15 9 0 8 -7 15 -15 15 -8
0 -15 -4 -15 -9z"/>
<path d="M3200 13730 c-17 -33 -28 -60 -25 -60 2 0 18 27 35 60 17 33 28 60
25 60 -2 0 -18 -27 -35 -60z"/>
<path d="M16725 13780 c-3 -5 -1 -10 4 -10 6 0 11 5 11 10 0 6 -2 10 -4 10 -3
0 -8 -4 -11 -10z"/>
<path d="M13071 13764 c0 -11 3 -14 6 -6 3 7 2 16 -1 19 -3 4 -6 -2 -5 -13z"/>
<path d="M16757 13695 c3 -8 9 -12 14 -9 12 7 11 11 -5 17 -10 4 -13 1 -9 -8z"/>
<path d="M3132 13594 c-18 -35 -32 -68 -32 -72 1 -4 17 24 36 62 19 37 34 70
32 72 -2 2 -18 -26 -36 -62z"/>
<path d="M1946 13536 c-21 -8 -52 -27 -69 -43 -32 -30 -94 -154 -123 -245
l-17 -56 -101 35 c-56 19 -107 40 -114 45 -9 8 -11 24 -6 53 5 40 4 42 -25 55
-18 7 -35 10 -39 6 -13 -13 -109 -291 -105 -303 4 -10 63 -37 69 -31 1 2 9 20
17 41 10 23 23 37 34 37 22 0 575 -188 587 -200 4 -4 3 -25 -4 -45 -14 -42 -8
-52 36 -61 l31 -6 73 204 c78 218 94 302 70 372 -16 49 -63 102 -114 128 -52
26 -148 33 -200 14z m143 -155 c76 -39 88 -97 46 -221 -14 -41 -29 -78 -33
-82 -7 -7 -257 74 -271 87 -5 6 38 122 63 168 11 22 32 45 46 53 36 19 105 17
149 -5z"/>
<path d="M3076 13473 c-6 -14 -5 -15 5 -6 7 7 10 15 7 18 -3 3 -9 -2 -12 -12z"/>
<path d="M13525 13480 c3 -5 8 -10 11 -10 2 0 4 5 4 10 0 6 -5 10 -11 10 -5 0
-7 -4 -4 -10z"/>
<path d="M3047 13415 c-24 -50 -20 -58 4 -12 11 22 19 41 17 43 -3 2 -12 -12
-21 -31z"/>
<path d="M16905 13380 c-3 -5 -1 -10 4 -10 6 0 11 5 11 10 0 6 -2 10 -4 10 -3
0 -8 -4 -11 -10z"/>
<path d="M18533 13370 c-26 -11 -27 -13 -14 -57 7 -23 6 -35 -4 -43 -18 -15
-586 -182 -601 -176 -7 3 -18 21 -25 41 -12 33 -16 36 -43 31 -17 -4 -34 -10
-39 -15 -7 -7 75 -296 88 -309 8 -8 66 10 71 22 3 7 0 25 -6 40 -12 32 1 56
28 56 24 0 492 -224 484 -231 -10 -9 -386 -119 -406 -119 -9 0 -20 16 -27 40
-12 39 -14 40 -43 34 -17 -3 -35 -10 -39 -14 -7 -6 75 -296 88 -308 8 -8 66
10 71 22 3 7 0 25 -6 41 -8 22 -8 31 2 41 10 9 332 108 591 181 14 3 22 -5 34
-37 16 -39 19 -41 47 -36 17 4 34 10 39 15 5 5 -12 75 -39 160 l-48 152 -30
-7 c-44 -9 -49 -17 -38 -58 10 -33 8 -38 -14 -53 -24 -15 -32 -12 -275 103
l-250 118 211 62 c116 35 217 61 225 58 8 -3 19 -22 26 -41 10 -32 14 -35 42
-29 17 4 35 10 40 15 5 5 -12 75 -39 160 -50 158 -52 161 -101 141z"/>
<path d="M3007 13325 c-24 -50 -20 -58 4 -12 11 22 19 41 17 43 -3 2 -12 -12
-21 -31z"/>
<path d="M2961 13219 c-12 -29 -20 -54 -18 -56 2 -2 14 20 26 48 12 29 20 54
18 56 -2 2 -14 -20 -26 -48z"/>
<path d="M18777 13253 c-84 -54 -90 -240 -12 -353 78 -112 228 -132 228 -30 0
42 -19 58 -83 70 -69 12 -110 52 -110 106 0 28 9 45 45 83 47 50 56 83 33 114
-20 25 -68 30 -101 10z"/>
<path d="M16971 13204 c0 -11 3 -14 6 -6 3 7 2 16 -1 19 -3 4 -6 -2 -5 -13z"/>
<path d="M2902 13075 c-17 -37 -14 -45 4 -12 9 16 14 31 11 33 -2 2 -9 -7 -15
-21z"/>
<path d="M17071 13043 c-1 -6 -4 -20 -7 -30 -5 -17 -5 -17 6 0 6 10 9 23 6 30
-3 9 -5 9 -5 0z"/>
<path d="M2866 12985 c-9 -26 -7 -32 5 -12 6 10 9 21 6 23 -2 3 -7 -2 -11 -11z"/>
<path d="M2841 12919 c-6 -18 -9 -34 -7 -36 2 -2 9 10 15 28 6 18 9 34 7 36
-2 2 -9 -10 -15 -28z"/>
<path d="M17127 12893 c-4 -3 -7 -16 -6 -27 0 -19 1 -19 10 3 10 24 8 36 -4
24z"/>
<path d="M7857 12883 c-24 -23 15 -103 50 -103 6 0 24 -6 40 -14 53 -26 104
-46 118 -46 8 0 15 -4 15 -10 0 -18 80 -12 87 7 9 23 -16 63 -52 83 -123 66
-238 103 -258 83z"/>
<path d="M2756 12673 c-31 -92 -56 -173 -55 -178 0 -6 27 68 60 164 32 96 57
176 55 178 -2 3 -29 -71 -60 -164z"/>
<path d="M17141 12771 c6 -17 15 -31 19 -31 12 0 0 37 -16 51 -12 9 -12 6 -3
-20z"/>
<path d="M2010 12761 c0 -42 -30 -49 -419 -88 -416 -42 -381 -32 -396 -116
l-7 -35 311 -212 c172 -117 316 -220 321 -230 5 -9 6 -26 3 -38 -4 -17 1 -24
22 -32 14 -5 32 -10 38 -10 11 0 67 193 67 232 0 19 -5 23 -42 32 -23 5 -27 3
-33 -25 -4 -17 -13 -33 -21 -36 -8 -3 -118 63 -254 153 -132 88 -237 160 -233
161 26 8 567 51 575 47 6 -4 8 -22 5 -40 -6 -37 -5 -39 39 -48 l31 -7 37 142
c21 78 34 145 29 150 -5 5 -23 12 -41 15 -28 6 -32 4 -32 -15z"/>
<path d="M8371 12731 c-39 -5 -59 -13 -74 -31 -19 -24 -20 -34 -13 -314 3
-167 10 -294 16 -300 14 -14 48 21 60 63 5 20 10 119 10 221 0 204 3 227 31
235 29 10 498 12 2330 14 l1676 1 34 23 c40 27 43 48 9 63 -18 9 -541 13
-1955 18 -1061 4 -1961 8 -2000 11 -38 2 -94 0 -124 -4z"/>
<path d="M12858 12683 c7 -3 16 -2 19 1 4 3 -2 6 -13 5 -11 0 -14 -3 -6 -6z"/>
<path d="M17200 12510 c0 -5 5 -10 11 -10 5 0 7 5 4 10 -3 6 -8 10 -11 10 -2
0 -4 -4 -4 -10z"/>
<path d="M17240 12489 c0 -5 5 -7 10 -4 6 3 10 8 10 11 0 2 -4 4 -10 4 -5 0
-10 -5 -10 -11z"/>
<path d="M2681 12439 c-7 -22 -11 -43 -8 -45 2 -2 9 14 16 37 7 22 11 43 8 45
-2 2 -9 -14 -16 -37z"/>
<path d="M2631 12261 c-18 -68 -30 -125 -28 -128 3 -2 8 11 12 29 4 18 18 71
32 117 13 46 22 89 20 94 -2 6 -18 -44 -36 -112z"/>
<path d="M2586 12089 c-8 -42 0 -50 9 -9 4 17 5 34 2 36 -2 3 -7 -10 -11 -27z"/>
<path d="M2543 11899 c-48 -219 -65 -308 -60 -322 2 -7 7 8 12 33 14 87 46
246 66 328 11 45 19 87 17 94 -2 6 -18 -54 -35 -133z"/>
<path d="M17376 12022 c-3 -5 1 -9 9 -9 8 0 12 4 9 9 -3 4 -7 8 -9 8 -2 0 -6
-4 -9 -8z"/>
<path d="M1297 11989 c-200 -47 -335 -254 -298 -460 24 -139 102 -243 229
-302 58 -27 80 -32 168 -35 123 -5 186 11 271 67 113 76 166 184 167 341 0 86
-2 101 -31 162 -55 117 -150 191 -285 223 -69 16 -162 18 -221 4z m153 -140
c77 -12 172 -54 222 -98 130 -114 92 -319 -72 -395 -61 -28 -230 -30 -306 -3
-158 55 -236 174 -205 312 23 102 82 155 201 181 70 16 82 16 160 3z"/>
<path d="M18900 11925 c0 -38 -4 -47 -22 -54 -32 -12 -571 -83 -598 -79 -25 3
-36 18 -44 59 -5 22 -9 25 -41 21 -19 -2 -35 -9 -35 -16 0 -6 9 -74 20 -151
11 -77 20 -143 20 -148 0 -4 17 -7 38 -5 33 3 37 6 34 28 -4 36 5 67 22 73 8
3 51 11 95 17 l81 11 45 -31 c25 -17 45 -35 45 -40 0 -13 -232 -230 -246 -230
-7 0 -14 15 -16 33 -3 29 -6 32 -36 30 -18 0 -36 -3 -38 -6 -6 -6 38 -324 47
-338 4 -7 19 -8 38 -4 29 6 31 9 31 53 l0 47 169 168 170 168 113 -82 c144
-104 186 -144 200 -192 11 -36 14 -38 42 -33 16 4 32 8 34 11 6 6 -30 272 -39
286 -4 7 -18 9 -37 4 -26 -5 -31 -11 -34 -41 l-3 -35 -177 123 c-98 67 -176
123 -175 124 5 5 234 34 268 34 40 0 53 -11 63 -52 5 -24 11 -28 41 -28 42 0
42 -4 15 175 -11 72 -20 133 -20 138 0 4 -16 7 -35 7 -35 0 -35 0 -35 -45z"/>
<path d="M17365 11950 c3 -5 8 -10 11 -10 2 0 4 5 4 10 0 6 -5 10 -11 10 -5 0
-7 -4 -4 -10z"/>
<path d="M8557 11921 c-3 -14 -3 -191 0 -394 5 -296 9 -369 20 -379 11 -9 17
-8 28 3 21 21 26 698 6 751 -18 46 -47 57 -54 19z"/>
<path d="M9187 11903 c-11 -10 -8 -929 3 -957 11 -30 35 -34 48 -8 13 24 22
793 10 867 -12 78 -39 121 -61 98z"/>
<path d="M9866 11883 c-3 -4 -6 -281 -6 -618 0 -607 1 -635 32 -635 4 0 14 13
23 30 13 25 15 102 15 557 1 560 -6 651 -45 667 -7 2 -16 2 -19 -1z"/>
<path d="M11354 11869 c-9 -14 -7 -1139 2 -1148 3 -3 13 0 22 5 16 10 17 56
20 561 2 523 1 552 -16 573 -15 19 -20 21 -28 9z"/>
<path d="M10646 11844 c-4 -14 -6 -523 -6 -1132 1 -609 -1 -1115 -5 -1124 -11
-28 -34 -32 -228 -38 -223 -6 -222 -6 -214 -104 7 -79 19 -88 52 -37 14 23 37
46 51 51 14 6 103 10 198 10 218 0 211 -5 212 149 9 1001 -4 2163 -25 2219
-16 39 -27 41 -35 6z"/>
<path d="M11955 11767 c-4 -35 -4 -240 -1 -457 3 -217 5 -414 6 -437 0 -36 3
-43 20 -43 14 0 20 9 24 33 9 58 15 851 7 901 -7 42 -22 65 -43 66 -3 0 -9
-28 -13 -63z"/>
<path d="M17425 11790 c-3 -5 -1 -10 4 -10 6 0 11 5 11 10 0 6 -2 10 -4 10 -3
0 -8 -4 -11 -10z"/>
<path d="M17440 11718 c0 -7 5 -20 10 -28 8 -12 10 -9 10 13 0 15 -4 27 -10
27 -5 0 -10 -6 -10 -12z"/>
<path d="M17466 11557 c3 -10 9 -15 12 -12 3 3 0 11 -7 18 -10 9 -11 8 -5 -6z"/>
<path d="M2467 11518 c-4 -24 -16 -104 -27 -178 -20 -136 -24 -177 -16 -169 3
2 14 72 26 154 30 206 33 235 28 235 -3 0 -8 -19 -11 -42z"/>
<path d="M6456 11491 c-25 -28 -19 -209 7 -225 15 -9 22 -7 38 13 10 13 19 36
19 51 0 39 25 62 58 54 15 -4 68 -23 119 -44 113 -47 142 -54 176 -41 59 23
29 54 -114 117 -223 98 -271 110 -303 75z"/>
<path d="M5513 11401 c-23 -15 -33 -28 -33 -46 0 -28 26 -85 39 -85 4 0 14
-11 21 -25 l14 -25 12 29 c7 16 17 32 24 36 7 4 60 10 119 12 86 5 115 10 154
30 55 27 67 47 43 71 -14 14 -45 17 -189 20 -159 3 -174 2 -204 -17z"/>
<path d="M15015 11264 c-50 -51 -31 -131 27 -109 19 8 23 80 5 106 -14 19 -16
19 -32 3z"/>
<path d="M7112 11253 c-21 -17 -23 -25 -20 -108 3 -85 4 -90 26 -93 18 -3 26
5 42 41 11 25 27 48 36 51 9 3 82 -16 163 -44 130 -45 151 -49 179 -39 34 12
42 38 18 58 -17 14 -350 139 -391 147 -22 4 -38 0 -53 -13z"/>
<path d="M17526 11193 c-6 -14 -5 -15 5 -6 7 7 10 15 7 18 -3 3 -9 -2 -12 -12z"/>
<path d="M5572 11176 c1 -10 8 -17 13 -17 15 1 12 24 -3 29 -9 3 -13 -2 -10
-12z"/>
<path d="M2406 11069 c-4 -44 -5 -83 -3 -85 3 -3 8 31 12 76 4 45 5 83 2 86
-2 3 -8 -32 -11 -77z"/>
<path d="M17520 11129 c0 -5 5 -7 10 -4 6 3 10 8 10 11 0 2 -4 4 -10 4 -5 0
-10 -5 -10 -11z"/>
<path d="M13595 11054 c-160 -79 -154 -68 -148 -271 3 -92 10 -172 15 -178 19
-21 33 32 38 147 6 137 10 144 126 208 71 39 124 88 124 115 0 12 -30 36 -42
35 -2 -1 -52 -26 -113 -56z"/>
<path d="M15257 11047 c-25 -51 -25 -57 -25 -277 -1 -241 4 -287 30 -304 31
-19 55 16 62 92 12 130 8 465 -5 499 -20 49 -34 47 -62 -10z"/>
<path d="M6459 11053 c-21 -25 -15 -431 7 -453 14 -13 17 -13 35 9 17 21 19
40 19 171 0 129 2 149 18 163 17 15 23 15 83 -2 35 -11 91 -29 123 -40 65 -23
107 -26 137 -11 24 13 24 32 2 52 -25 21 -342 128 -379 128 -17 0 -38 -8 -45
-17z"/>
<path d="M7763 11039 c-18 -18 -17 -179 1 -204 20 -28 44 -12 57 40 17 69 32
72 155 30 112 -38 160 -41 178 -12 17 28 -15 48 -161 102 -138 51 -210 65
-230 44z"/>
<path d="M936 10793 c-3 -131 -9 -311 -12 -400 l-6 -163 29 0 c26 0 30 4 39
43 l9 42 310 -2 c170 -1 319 -4 332 -8 20 -5 23 -12 23 -50 0 -45 0 -45 35
-45 l35 0 0 155 0 155 -30 0 c-27 0 -30 -3 -30 -34 0 -18 -7 -39 -15 -46 -11
-9 -89 -10 -335 -5 l-321 8 7 186 c4 102 7 186 8 187 0 1 145 -3 321 -7 354
-10 345 -8 345 -76 0 -30 3 -33 30 -33 l30 0 0 155 0 155 -30 0 c-27 0 -30 -3
-30 -34 0 -18 -6 -39 -14 -45 -10 -9 -93 -10 -326 -4 -291 8 -313 10 -326 28
-8 10 -14 31 -14 47 0 24 -4 28 -29 28 l-29 0 -6 -237z"/>
<path d="M12430 11023 c-55 -10 -63 -29 -58 -131 3 -51 10 -98 16 -104 17 -17
42 9 42 43 0 34 17 81 33 91 7 4 29 8 50 8 74 0 128 53 80 78 -22 12 -129 21
-163 15z"/>
<path d="M18542 11012 c-148 -53 -241 -165 -263 -319 -31 -221 104 -414 319
-454 77 -15 195 -6 264 20 194 74 292 286 228 494 -34 109 -110 195 -217 244
-50 24 -73 28 -168 30 -88 3 -121 0 -163 -15z m221 -122 c174 -25 278 -140
264 -291 -3 -33 -14 -73 -24 -91 -95 -163 -437 -186 -583 -39 -152 152 -44
385 195 420 33 5 65 9 70 10 6 0 41 -4 78 -9z"/>
<path d="M12853 10982 c-6 -4 -16 -19 -20 -32 -11 -30 -2 -355 10 -366 4 -5
16 -3 25 2 14 9 17 31 20 140 4 175 -6 166 186 158 139 -6 153 -5 174 12 25
21 22 48 -6 59 -25 9 -258 35 -322 35 -30 0 -60 -4 -67 -8z"/>
<path d="M2385 10848 c-4 -64 -5 -122 -3 -130 3 -7 9 39 13 104 4 64 5 122 3
130 -3 7 -9 -39 -13 -104z"/>
<path d="M17571 10914 c0 -11 3 -14 6 -6 3 7 2 16 -1 19 -3 4 -6 -2 -5 -13z"/>
<path d="M13989 10883 c-56 -6 -73 -31 -70 -105 3 -72 16 -105 36 -88 7 6 16
26 19 45 8 38 22 49 80 58 74 12 97 69 32 82 -53 11 -60 11 -97 8z"/>
<path d="M7130 10843 c-36 -12 -40 -34 -40 -211 0 -201 11 -240 54 -196 13 12
16 39 16 129 0 122 9 161 37 167 10 2 83 -18 163 -46 149 -51 193 -55 207 -20
11 30 -35 56 -203 113 -188 65 -212 71 -234 64z"/>
<path d="M14334 10826 c-22 -35 -8 -179 18 -184 13 -2 19 6 24 35 10 59 27 79
74 87 54 9 91 32 83 54 -10 28 -24 32 -105 32 -71 0 -79 -2 -94 -24z"/>
<path d="M5533 10829 c-61 -18 -52 -89 20 -156 16 -15 27 -23 24 -16 -22 38
33 63 142 63 55 0 89 6 121 21 87 39 103 72 43 88 -46 13 -306 13 -350 0z"/>
<path d="M8394 10806 c-15 -11 -19 -26 -19 -73 0 -118 29 -147 66 -68 26 56
35 56 157 9 78 -31 96 -35 117 -26 31 14 32 37 3 56 -31 20 -269 116 -289 116
-8 0 -24 -6 -35 -14z"/>
<path d="M2365 10457 c-4 -129 -3 -333 2 -453 8 -206 9 -192 9 234 0 248 -1
452 -2 452 -1 0 -5 -105 -9 -233z"/>
<path d="M5580 10616 c0 -9 5 -16 10 -16 6 0 10 4 10 9 0 6 -4 13 -10 16 -5 3
-10 -1 -10 -9z"/>
<path d="M8966 10614 c-16 -16 -22 -115 -10 -161 10 -38 42 -29 54 16 19 72
27 73 171 22 88 -31 129 -32 129 -1 0 28 -29 45 -159 94 -133 50 -161 54 -185
30z"/>
<path d="M7783 10610 c-31 -13 -35 -38 -31 -197 3 -156 14 -189 49 -157 16 14
19 32 19 114 0 146 13 154 163 101 87 -30 130 -37 161 -25 19 7 21 38 4 52
-21 16 -317 123 -337 121 -3 0 -16 -4 -28 -9z"/>
<path d="M17581 10564 c0 -11 3 -14 6 -6 3 7 2 16 -1 19 -3 4 -6 -2 -5 -13z"/>
<path d="M11659 10519 c-18 -18 -21 -30 -17 -86 4 -70 23 -96 46 -66 6 9 12
25 12 34 0 28 40 49 92 49 29 0 52 6 62 16 31 30 15 47 -62 63 -77 16 -109 14
-133 -10z"/>
<path d="M13962 10410 c-12 -5 -27 -21 -32 -34 -10 -27 -3 -146 11 -167 11
-19 39 7 39 38 0 42 18 62 71 78 29 8 58 20 65 26 23 19 16 49 -12 59 -31 12
-111 12 -142 0z"/>
<path d="M9557 10392 c-32 -35 -17 -179 18 -166 8 3 15 12 15 20 0 7 11 25 24
40 l23 28 100 -34 c68 -22 108 -31 126 -26 36 9 35 37 -3 59 -32 19 -252 97
-274 97 -7 0 -20 -8 -29 -18z"/>
<path d="M6471 10381 c-22 -22 -22 -28 -19 -212 2 -150 6 -192 17 -198 44 -28
63 27 59 173 -4 162 -5 162 184 110 98 -27 126 -29 163 -12 56 25 20 56 -111
94 -49 14 -110 32 -136 40 -91 28 -133 29 -157 5z"/>
<path d="M8403 10390 c-26 -11 -27 -13 -24 -165 3 -124 6 -145 26 -145 23 0
35 35 35 102 0 70 18 108 51 108 11 0 52 -11 91 -25 101 -35 158 -33 158 7 0
22 -40 42 -191 94 -107 37 -112 37 -146 24z"/>
<path d="M14355 10378 c-27 -21 -27 -23 -21 -97 4 -42 11 -80 16 -85 15 -15
40 14 40 45 0 36 32 69 65 69 39 0 85 27 85 51 0 43 -136 56 -185 17z"/>
<path d="M16025 10362 c-34 -24 -37 -63 -43 -592 -4 -476 -3 -528 12 -557 14
-29 52 -60 61 -51 2 2 4 35 6 73 2 39 7 75 12 82 5 8 5 43 -1 88 -6 42 -8 108
-4 148 3 40 6 223 6 407 1 315 -1 337 -19 372 -11 21 -24 34 -30 30z"/>
<path d="M13609 10335 c-64 -23 -118 -55 -129 -74 -13 -25 -13 -152 0 -186 14
-36 33 -27 44 21 16 73 28 93 71 118 47 28 95 79 95 101 0 12 -31 37 -42 34
-2 0 -19 -6 -39 -14z"/>
<path d="M13072 10265 l-22 -16 0 -358 c1 -197 4 -367 7 -379 7 -27 29 -28 43
-3 6 12 10 134 10 326 l0 306 24 24 c18 18 34 24 66 23 30 0 48 6 63 21 l21
21 -22 22 c-30 30 -154 38 -190 13z"/>
<path d="M5523 10208 c-32 -15 -30 -63 5 -119 15 -24 33 -63 40 -85 7 -23 19
-47 27 -54 13 -11 15 -7 15 22 0 19 -5 50 -11 67 -17 48 -3 55 120 61 96 4
112 8 149 33 46 30 54 60 23 77 -26 14 -339 12 -368 -2z"/>
<path d="M7115 10206 c-17 -12 -19 -27 -16 -182 2 -180 9 -208 42 -178 16 15
19 32 19 121 0 57 5 113 10 124 15 27 53 24 209 -16 115 -30 138 -33 160 -22
39 19 37 40 -6 61 -49 23 -340 106 -374 106 -14 0 -34 -6 -44 -14z"/>
<path d="M8967 10182 c-13 -15 -17 -39 -17 -113 0 -114 6 -139 31 -139 24 0
28 10 37 90 10 88 16 90 147 48 113 -37 139 -38 155 -7 14 26 -12 41 -165 95
-141 49 -164 52 -188 26z"/>
<path d="M15753 10137 c-52 -29 -149 -101 -165 -122 -16 -21 -17 -61 -18 -431
0 -225 0 -422 0 -438 0 -28 1 -28 19 -12 35 32 41 93 41 430 0 226 4 333 12
351 6 14 35 41 64 61 56 36 96 81 113 125 16 44 -19 63 -66 36z"/>
<path d="M18286 10058 c-4 -51 -9 -107 -12 -125 -6 -30 -4 -32 28 -35 30 -3
34 0 44 32 8 26 15 34 30 33 16 -2 529 -227 542 -238 7 -6 -578 -146 -588
-140 -5 3 -10 22 -10 41 0 32 -2 34 -34 34 -39 0 -40 -3 -51 -155 -4 -44 -9
-92 -11 -107 -5 -26 -3 -28 30 -28 30 0 37 4 42 26 10 38 42 49 432 150 l342
89 0 55 0 55 -331 154 c-182 85 -342 163 -355 174 -16 12 -24 29 -24 48 0 26
-3 29 -34 29 l-33 0 -7 -92z"/>
<path d="M11217 10106 c-30 -31 -19 -306 13 -306 5 0 16 7 24 16 12 11 16 36
16 94 0 99 9 110 91 110 46 0 63 4 79 20 11 11 20 24 20 30 0 22 -50 39 -136
45 -77 6 -93 5 -107 -9z"/>
<path d="M951 10102 l-33 -3 6 -67 c20 -201 15 -182 52 -182 32 0 34 2 34 34
0 19 3 37 8 39 9 6 352 -113 352 -122 0 -3 -35 -31 -77 -61 -42 -30 -112 -81
-155 -112 -44 -32 -84 -55 -89 -53 -4 3 -11 21 -15 40 -6 32 -8 34 -38 28 -17
-3 -32 -7 -34 -8 -3 -2 18 -252 24 -282 4 -19 11 -23 39 -23 33 0 35 2 35 33
0 42 -3 39 258 231 l214 157 69 -26 c108 -42 119 -61 69 -118 -35 -40 -38 -69
-10 -97 29 -29 66 -25 101 9 26 26 29 36 29 93 0 71 -20 121 -60 150 -14 10
-171 70 -348 133 -178 63 -336 122 -352 130 -17 9 -31 26 -36 47 -8 30 -12 33
-43 30z"/>
<path d="M11727 10030 c-13 -18 -15 -43 -11 -134 6 -135 10 -156 29 -156 24 0
35 35 35 113 0 95 8 102 100 99 58 -3 72 0 89 17 27 27 26 37 -4 57 -16 11
-57 18 -123 21 -94 5 -100 5 -115 -17z"/>
<path d="M15093 10040 c-13 -5 -23 -13 -23 -17 0 -4 -1 -234 -2 -510 -3 -518
-1 -544 36 -508 14 15 16 63 16 464 0 501 -4 471 72 485 20 4 46 15 59 24 18
15 20 22 11 39 -17 31 -116 44 -169 23z"/>
<path d="M7770 10024 c-12 -14 -14 -46 -12 -163 4 -156 12 -183 43 -155 16 14
19 32 19 109 0 57 4 95 12 103 17 17 51 15 143 -9 108 -29 131 -32 160 -25 32
8 33 39 1 59 -27 18 -251 85 -311 94 -31 4 -44 1 -55 -13z"/>
<path d="M9562 9984 c-19 -13 -22 -24 -22 -83 0 -87 9 -131 26 -131 18 0 34
32 34 69 0 29 22 61 42 61 6 0 53 -13 104 -30 72 -23 99 -28 119 -20 31 12 32
35 3 54 -21 13 -258 96 -276 96 -4 0 -18 -7 -30 -16z"/>
<path d="M8414 9860 c-12 -5 -25 -14 -29 -20 -8 -13 -7 -243 1 -265 8 -19 19
-19 38 1 11 11 16 35 16 83 0 42 5 74 14 86 14 19 16 19 98 1 131 -29 147 -30
168 -11 39 35 4 60 -140 98 -131 35 -142 36 -166 27z"/>
<path d="M15350 9832 c-19 -6 -30 -23 -24 -34 7 -11 51 -10 58 1 9 13 -18 39
-34 33z"/>
<path d="M13551 9802 c-15 -28 -14 -104 2 -126 16 -22 38 -13 59 25 17 30 19
30 76 23 70 -7 105 6 100 39 -4 31 -43 46 -140 53 -80 6 -87 5 -97 -14z"/>
<path d="M2383 9720 c-1 -36 3 -94 7 -130 l7 -65 0 75 c1 41 -2 100 -7 130
l-7 55 0 -65z"/>
<path d="M6469 9749 c-20 -20 -21 -28 -15 -167 6 -158 15 -184 54 -163 25 13
32 45 30 139 -1 43 3 77 10 84 12 12 110 2 225 -23 50 -12 62 -11 85 2 58 32
33 74 -53 90 -22 4 -93 19 -159 33 -143 31 -150 32 -177 5z"/>
<path d="M14057 9743 c-26 -7 -35 -40 -30 -100 8 -83 40 -95 68 -26 l15 36 62
-6 c93 -8 158 26 116 61 -27 22 -186 46 -231 35z"/>
<path d="M8982 9698 c-29 -15 -33 -34 -30 -147 2 -76 6 -96 20 -105 27 -17 40
5 47 76 8 87 24 94 140 62 121 -34 161 -30 161 16 0 22 -23 33 -140 68 -132
39 -169 44 -198 30z"/>
<path d="M7122 9614 c-21 -14 -22 -22 -22 -153 0 -108 3 -141 14 -150 12 -10
19 -8 35 8 18 18 21 34 21 99 0 42 4 83 9 90 14 22 26 21 265 -28 68 -14 126
3 126 36 0 20 -46 40 -135 58 -44 9 -120 25 -170 35 -110 25 -115 25 -143 5z"/>
<path d="M17544 9619 c-3 -6 -1 -16 5 -22 8 -8 11 -5 11 11 0 24 -5 28 -16 11z"/>
<path d="M5533 9600 c-44 -18 -38 -65 15 -122 l25 -27 17 22 c16 19 31 22 131
27 98 4 119 9 147 28 33 24 41 49 20 70 -14 14 -320 16 -355 2z"/>
<path d="M9550 9526 c-8 -11 -10 -41 -5 -108 4 -51 9 -96 12 -101 2 -4 13 -2
24 3 13 8 19 21 19 46 0 23 8 43 23 58 26 26 30 26 164 -7 59 -14 64 -14 85 3
l23 19 -21 21 c-25 26 -207 80 -268 80 -26 0 -48 -6 -56 -14z"/>
<path d="M2401 9493 c-2 -55 49 -428 85 -628 243 -1335 838 -2575 1737 -3619
148 -172 576 -602 747 -751 846 -736 1837 -1278 2896 -1584 510 -148 1030
-239 1604 -283 209 -16 848 -16 1045 0 280 22 387 35 373 43 -8 5 6 7 32 4 25
-3 68 -1 95 4 l50 10 -68 -2 c-37 -1 -68 2 -70 6 -1 5 -20 6 -41 2 -22 -5 -33
-11 -26 -15 11 -7 -74 -21 -115 -19 -17 1 -16 2 5 9 29 9 -124 2 -215 -11 -50
-7 -44 -7 40 -4 78 3 88 2 45 -5 -73 -10 -364 -20 -325 -11 17 4 -118 8 -299
8 -182 0 -321 -4 -310 -9 11 -4 -8 -6 -46 -3 -36 2 -101 5 -145 6 -77 2 -78 2
-25 8 l55 7 -90 9 c-49 5 -144 9 -210 8 -69 0 -112 3 -100 8 11 4 16 8 10 9
-5 0 -29 5 -53 9 -33 6 -42 6 -39 -4 6 -14 -44 -8 -54 6 -8 13 -150 29 -195
23 -26 -4 -35 -2 -26 4 10 7 5 11 -18 16 -42 8 -52 8 -46 -2 2 -4 -11 -6 -31
-4 -23 3 -31 7 -22 13 9 5 5 10 -15 15 -19 5 -31 2 -37 -7 -7 -12 -9 -12 -9 0
0 9 -8 11 -27 6 -25 -6 -26 -5 -10 7 17 13 17 14 -5 16 -13 1 -57 3 -98 4 -41
0 -66 4 -57 7 12 5 -4 12 -47 22 -36 8 -66 11 -66 7 0 -4 -8 -8 -17 -8 -14 0
-15 2 -5 9 19 11 -21 21 -62 15 -25 -3 -27 -3 -11 5 l20 10 -20 2 c-11 1 -27
3 -35 4 -8 0 -21 4 -28 9 -7 4 -24 5 -37 2 -16 -4 -25 -1 -29 10 -5 13 -14 15
-41 10 -26 -5 -35 -4 -33 6 2 7 -4 12 -14 10 -10 -1 -29 5 -43 14 -15 9 -46
18 -71 18 -25 1 -46 6 -49 14 -2 6 -13 12 -24 12 -11 0 -21 6 -24 13 -3 9 -8
9 -21 -3 -16 -12 -20 -12 -30 0 -6 8 -31 22 -56 31 -25 9 -44 22 -42 28 2 9
-3 9 -17 1 -25 -13 -34 -13 -26 0 6 9 -21 14 -77 14 -9 0 -16 4 -15 10 1 6
-11 11 -28 11 -16 0 -37 8 -47 18 -10 11 -19 14 -23 7 -3 -5 -11 -10 -16 -10
-6 0 -7 5 -4 10 3 6 -1 10 -10 10 -9 0 -14 4 -11 9 3 5 -3 11 -14 14 -11 3
-23 1 -26 -4 -3 -5 -11 -9 -17 -9 -8 0 -7 3 2 9 11 7 10 11 -7 20 -11 6 -30
11 -41 11 -10 0 -27 3 -36 6 -13 5 -14 8 -3 15 10 7 10 9 -2 9 -9 0 -22 -6
-29 -13 -11 -10 -13 -9 -8 6 6 15 3 17 -13 12 -11 -4 -20 -2 -20 4 0 5 -14 13
-32 16 -35 8 -69 25 -79 39 -4 5 -19 6 -33 4 -15 -3 -24 -3 -21 1 3 3 -13 15
-37 26 -31 15 -42 26 -41 40 1 11 0 14 -3 8 -8 -18 -45 -16 -72 3 -12 8 -28
12 -35 8 -8 -5 -7 -2 2 9 12 15 12 17 0 12 -8 -3 -37 6 -64 19 -44 22 -47 25
-22 25 15 1 27 6 27 12 0 7 -11 8 -30 4 -16 -4 -44 -3 -62 0 -27 6 -29 9 -16
19 12 9 7 11 -27 12 -29 1 -49 8 -64 23 -15 15 -29 20 -44 15 -22 -6 -22 -6
-2 9 20 16 20 16 -3 10 -25 -6 -55 14 -45 30 4 7 0 8 -11 4 -13 -5 -17 -3 -13
7 4 10 1 13 -8 9 -8 -3 -12 -10 -9 -17 3 -6 -1 -3 -9 6 -8 10 -17 15 -21 11
-3 -3 -17 4 -30 16 -15 14 -30 20 -37 16 -8 -5 -10 -4 -5 3 6 11 -6 16 -26 13
-5 0 -8 4 -8 10 0 5 -13 15 -30 20 -34 12 -31 29 4 29 13 0 29 7 36 15 9 10 9
15 1 15 -6 0 -11 -4 -11 -8 0 -5 -13 -8 -30 -7 -16 1 -27 -2 -25 -6 3 -4 -2
-9 -10 -13 -8 -3 -14 -2 -14 2 3 18 -2 32 -12 32 -5 0 -8 -4 -4 -9 3 -5 1 -13
-5 -16 -6 -4 -9 -1 -8 6 2 7 -6 15 -17 17 -11 2 -22 7 -25 11 -6 8 -83 56 -90
56 -3 0 -4 4 -2 8 1 5 -1 6 -6 3 -5 -3 -19 2 -31 11 -13 8 -46 28 -75 44 -28
15 -50 33 -48 39 1 6 -2 9 -8 5 -5 -3 -10 -1 -10 4 0 6 -5 10 -12 8 -6 -1 -14
6 -16 17 -3 13 0 16 9 11 8 -5 10 -4 5 4 -5 7 -13 8 -24 2 -16 -9 -72 14 -72
30 0 4 -14 12 -31 18 -19 7 -28 15 -23 22 4 7 3 9 -3 6 -6 -4 -14 0 -17 9 -3
8 -14 14 -23 12 -10 -2 -17 2 -16 9 2 7 -12 19 -30 27 -38 16 -77 45 -61 46
12 0 15 30 2 30 -4 0 -8 -7 -8 -15 0 -8 -4 -15 -9 -15 -5 0 -11 7 -15 15 -3 8
-12 15 -21 15 -9 0 -15 9 -15 26 0 14 -4 23 -10 19 -6 -4 -7 -12 -3 -18 8 -14
-20 8 -53 40 -12 12 -20 24 -17 27 3 2 -3 3 -13 2 -20 -3 -50 21 -40 31 3 3
12 0 21 -7 8 -7 15 -8 15 -2 0 15 -31 24 -45 12 -15 -12 -25 -3 -18 17 4 10 0
14 -13 11 -13 -2 -19 3 -20 19 -1 25 6 29 22 13 7 -7 11 -6 11 4 0 9 -8 13
-21 10 -60 -9 -61 -9 -60 12 1 16 -4 20 -20 17 -29 -5 -183 126 -164 139 10 7
8 8 -4 4 -18 -5 -76 38 -61 46 4 3 3 3 -4 2 -17 -4 -26 13 -11 20 7 3 2 3 -11
0 -15 -4 -21 -2 -17 4 4 6 -3 16 -14 22 -11 6 -18 15 -15 20 3 6 -1 7 -10 4
-11 -5 -18 0 -22 15 -3 11 -12 21 -19 21 -8 0 -14 5 -14 11 0 5 -4 8 -8 5 -12
-7 -95 81 -88 93 4 5 1 13 -5 17 -8 5 -9 3 -4 -6 5 -9 4 -11 -4 -6 -6 4 -9 11
-6 16 3 5 1 11 -5 15 -5 3 -10 1 -10 -4 0 -15 -42 28 -44 45 -3 21 -37 53 -50
48 -12 -4 -50 40 -51 58 0 3 -3 10 -7 14 -5 4 -8 22 -8 41 0 18 -4 33 -10 33
-13 0 -13 -21 0 -54 12 -34 -4 -34 -26 -1 -9 14 -12 30 -8 37 6 10 5 11 -8 1
-12 -11 -18 -9 -34 8 -19 22 -19 22 6 15 19 -6 21 -5 10 3 -8 6 -22 11 -30 11
-20 0 -41 35 -34 55 3 8 1 15 -6 15 -6 0 -8 -4 -5 -10 3 -5 3 -10 -1 -10 -11
0 -33 34 -34 52 0 11 -6 15 -19 11 -18 -5 -36 20 -26 37 3 4 -1 7 -8 6 -12 -1
-147 143 -147 157 0 3 8 4 18 2 9 -2 21 -4 25 -4 5 -1 6 -5 2 -10 -3 -5 -1
-12 5 -16 16 -10 12 21 -5 35 -8 6 -19 9 -26 5 -8 -5 -9 -1 -4 15 5 16 4 21
-6 18 -8 -3 -13 -13 -13 -22 1 -9 -1 -16 -5 -16 -12 0 -31 39 -25 55 3 8 1 15
-5 15 -6 0 -11 -5 -11 -11 0 -10 -84 90 -85 101 -1 3 -15 20 -33 39 -18 18
-32 39 -32 47 0 8 -5 14 -10 14 -6 0 -24 21 -40 47 -23 35 -27 49 -17 56 8 5
4 6 -9 2 -28 -7 -40 20 -16 35 14 9 13 10 -7 4 -20 -5 -23 -3 -18 10 4 11 3
15 -4 11 -10 -7 -59 42 -59 58 0 10 -50 89 -65 102 -28 26 -117 167 -119 189
0 13 -4 22 -8 20 -9 -6 -55 51 -64 78 -3 12 -15 31 -25 42 -21 22 -26 41 -7
30 7 -4 8 -3 4 4 -4 7 -13 12 -19 12 -18 0 -39 52 -27 64 5 5 10 15 10 20 0 6
-5 3 -11 -7 -15 -25 -32 -10 -25 22 4 17 3 21 -2 13 -7 -10 -16 -1 -36 33 -24
39 -26 49 -14 63 12 15 11 16 -4 3 -15 -11 -19 -11 -24 2 -3 9 -2 22 2 29 4 7
4 10 -1 6 -10 -9 -23 11 -94 145 -28 54 -48 103 -45 109 4 6 3 8 -3 5 -16 -10
-25 23 -12 39 7 9 8 14 1 14 -6 0 -12 -6 -15 -12 -3 -8 -7 -6 -12 7 -3 11 -11
28 -16 37 -5 10 -9 25 -9 33 0 8 -3 15 -8 15 -4 0 -13 15 -21 33 -8 17 -24 54
-37 81 -12 28 -19 56 -16 65 4 10 1 12 -8 6 -10 -6 -12 -4 -7 9 4 10 3 15 -3
11 -6 -4 -13 8 -16 25 -4 17 -11 33 -15 36 -5 3 -9 12 -9 20 0 8 4 12 10 9 6
-3 7 1 3 10 -4 13 -8 14 -14 4 -6 -10 -10 -9 -15 6 -3 11 -12 34 -19 50 -8 17
-17 42 -20 58 -4 15 -11 30 -16 33 -5 3 -9 14 -9 24 0 11 -8 34 -18 52 -10 18
-29 68 -43 110 -13 43 -27 78 -31 78 -5 0 -8 9 -8 20 0 18 -10 48 -32 97 -6
11 -7 26 -4 32 4 6 3 11 -1 11 -9 0 -27 50 -62 175 -11 39 -32 108 -45 155
-63 212 -121 468 -170 755 -37 218 -44 268 -56 390 -6 61 -15 128 -19 150 -8
38 -9 39 -10 8z m2224 -4641 c-6 -7 -35 18 -35 31 0 5 9 2 20 -8 11 -10 18
-20 15 -23z m615 -536 c0 -3 -4 -8 -10 -11 -5 -3 -10 -1 -10 4 0 6 5 11 10 11
6 0 10 -2 10 -4z m3127 -1512 c-3 -3 -12 -4 -19 -1 -8 3 -5 6 6 6 11 1 17 -2
13 -5z m156 -31 c-7 -2 -19 -2 -25 0 -7 3 -2 5 12 5 14 0 19 -2 13 -5z m400
-70 c-7 -2 -21 -2 -30 0 -10 3 -4 5 12 5 17 0 24 -2 18 -5z m44 -9 c-3 -3 -12
-4 -19 -1 -8 3 -5 6 6 6 11 1 17 -2 13 -5z m266 -31 c-7 -2 -19 -2 -25 0 -7 3
-2 5 12 5 14 0 19 -2 13 -5z m145 -10 c-10 -2 -28 -2 -40 0 -13 2 -5 4 17 4
22 1 32 -1 23 -4z m535 -30 c-7 -2 -21 -2 -30 0 -10 3 -4 5 12 5 17 0 24 -2
18 -5z m264 0 c-20 -2 -52 -2 -70 0 -17 2 0 4 38 4 39 0 53 -2 32 -4z"/>
<path d="M7769 9464 c-10 -12 -13 -46 -11 -132 3 -127 13 -154 43 -126 15 13
19 32 19 84 0 38 5 71 12 78 18 18 79 15 178 -8 66 -16 93 -18 113 -11 57 22
44 62 -26 79 -208 54 -305 64 -328 36z"/>
<path d="M11216 9448 c-14 -21 -15 -42 -9 -138 5 -62 13 -115 18 -117 22 -6
33 15 38 80 3 38 11 75 18 83 7 9 32 14 71 14 70 0 98 12 98 43 0 35 -37 50
-131 55 -84 4 -88 3 -103 -20z"/>
<path d="M13087 9248 c-229 -117 -429 -223 -445 -235 -23 -19 -25 -24 -12 -33
8 -6 42 -9 77 -7 58 3 87 16 440 194 208 105 394 193 415 197 34 6 62 2 276
-40 49 -10 104 -14 136 -11 56 6 98 25 93 42 -6 18 -343 86 -497 100 l-65 6
-418 -213z"/>
<path d="M5580 9411 c0 -12 5 -21 10 -21 6 0 10 6 10 14 0 8 -4 18 -10 21 -5
3 -10 -3 -10 -14z"/>
<path d="M11732 9382 c-19 -19 -20 -29 -15 -139 6 -141 7 -145 35 -141 26 3
35 32 37 120 1 69 13 78 98 76 66 -2 103 14 103 43 0 29 -59 50 -156 57 -73 4
-84 2 -102 -16z"/>
<path d="M17540 9390 c0 -5 5 -10 11 -10 5 0 7 5 4 10 -3 6 -8 10 -11 10 -2 0
-4 -4 -4 -10z"/>
<path d="M8398 9340 c-16 -9 -18 -27 -18 -126 0 -97 3 -116 16 -121 25 -9 44
24 44 75 0 85 24 96 145 67 84 -20 118 -19 140 5 18 20 18 21 -1 39 -36 35
-292 82 -326 61z"/>
<path d="M1763 9323 c-7 -2 -13 -22 -13 -43 0 -20 -6 -43 -14 -49 -7 -6 -147
-32 -311 -58 l-298 -46 -19 22 c-10 13 -18 34 -18 47 0 21 -3 23 -32 17 -18
-3 -36 -9 -40 -12 -4 -4 4 -72 17 -151 14 -80 25 -148 25 -152 0 -11 42 -10
60 2 9 6 14 21 12 43 -2 19 2 38 10 44 17 14 602 107 623 99 16 -6 19 -12 29
-57 5 -22 9 -25 41 -21 23 3 35 9 35 19 0 16 -36 241 -45 281 -5 21 -31 28
-62 15z"/>
<path d="M15330 9305 c-14 -17 -7 -45 13 -45 24 0 51 26 44 44 -8 20 -40 21
-57 1z"/>
<path d="M18205 9288 c-14 -62 -125 -621 -125 -633 0 -7 46 -40 103 -73 155
-90 140 -86 161 -47 l19 34 -56 51 c-68 62 -97 118 -97 187 0 48 35 241 45
251 5 6 261 -40 275 -48 5 -3 5 -26 -1 -50 -22 -102 -36 -115 -124 -115 l-50
0 -3 -36 -3 -36 171 -33 c93 -17 177 -30 185 -26 9 3 15 18 15 39 0 31 -3 34
-45 45 -63 17 -80 51 -64 132 6 33 14 60 18 60 3 0 61 -10 128 -22 113 -20
122 -23 118 -42 -44 -203 -57 -252 -70 -272 -22 -33 -74 -69 -125 -86 -42 -14
-45 -17 -42 -49 1 -18 4 -34 5 -36 2 -1 57 5 123 14 l120 16 63 313 c34 172
60 317 57 322 -3 5 -19 12 -36 14 -28 4 -31 2 -41 -34 -5 -22 -17 -42 -25 -45
-24 -9 -608 106 -621 124 -6 8 -9 29 -6 48 6 35 3 39 -39 49 -23 5 -28 3 -33
-16z"/>
<path d="M6475 9206 c-17 -12 -19 -27 -17 -182 2 -93 5 -177 8 -186 7 -25 40
-22 58 4 12 17 16 49 16 128 0 58 4 111 9 119 10 16 105 10 205 -13 67 -16
114 -7 134 24 19 30 0 58 -46 65 -20 4 -59 11 -87 16 -83 17 -219 39 -241 39
-11 0 -29 -6 -39 -14z"/>
<path d="M8967 9202 c-18 -20 -23 -101 -10 -175 5 -31 9 -38 27 -35 17 2 23
14 33 62 13 66 25 79 68 71 152 -31 188 -35 213 -22 59 28 33 57 -74 81 -140
32 -162 36 -202 36 -25 0 -45 -7 -55 -18z"/>
<path d="M14140 9165 c-41 -25 -115 -71 -165 -104 -49 -32 -193 -125 -320
-205 -126 -81 -239 -157 -251 -170 -20 -23 -21 -33 -30 -782 -12 -1072 -12
-1078 6 -1082 10 -2 26 14 40 40 l25 43 0 835 c0 459 1 840 3 847 1 6 30 31
65 55 84 59 462 300 560 357 114 66 207 160 193 196 -10 26 -49 17 -126 -30z"/>
<path d="M10243 9173 c-19 -2 -37 -13 -43 -24 -7 -12 -11 -188 -10 -506 0
-416 3 -490 15 -510 13 -19 48 -31 57 -20 1 1 5 216 8 477 l5 475 275 5 c194
4 281 9 297 18 12 6 33 12 46 12 39 0 51 23 28 51 l-19 24 -314 1 c-172 1
-328 -1 -345 -3z"/>
<path d="M7117 9082 c-14 -16 -17 -43 -17 -168 0 -155 5 -174 42 -174 29 0 38
33 38 138 0 110 1 112 65 112 19 0 66 -7 105 -15 128 -27 220 -19 220 20 0 31
-41 45 -247 85 -129 25 -185 26 -206 2z"/>
<path d="M9559 9079 c-19 -19 -20 -28 -14 -102 4 -45 11 -86 15 -91 17 -17 39
3 45 41 3 21 10 45 14 53 10 19 64 19 146 0 66 -14 112 -8 122 16 9 25 -27 53
-86 64 -31 7 -78 18 -105 26 -70 20 -112 18 -137 -7z"/>
<path d="M15837 9081 c-37 -19 -179 -135 -243 -199 -39 -39 -45 -82 -19 -132
19 -36 32 -38 44 -7 5 12 37 47 72 77 35 30 84 74 109 97 25 23 66 54 92 70
56 33 62 61 22 92 -32 25 -31 25 -77 2z"/>
<path d="M7794 8980 c-12 -5 -25 -14 -29 -21 -14 -22 -6 -243 10 -258 26 -27
43 3 47 84 2 41 9 80 16 87 11 11 102 5 242 -18 27 -4 42 -1 60 14 52 43 1 68
-195 97 -55 9 -107 17 -115 20 -8 2 -25 0 -36 -5z"/>
<path d="M5530 8962 c-18 -14 -21 -25 -16 -45 9 -37 48 -62 75 -48 11 6 64 11
118 11 105 0 177 22 190 56 13 36 -22 44 -188 44 -137 0 -160 -2 -179 -18z"/>
<path d="M16320 8881 c17 -32 7 -60 -38 -107 -22 -22 -44 -49 -50 -60 -11 -21
-19 -161 -37 -654 -7 -184 -16 -229 -51 -275 -13 -18 -24 -35 -24 -38 0 -3
-27 -43 -60 -89 -34 -46 -77 -108 -97 -138 -20 -30 -39 -57 -42 -60 -3 -3 -28
-38 -55 -78 -53 -78 -107 -132 -134 -132 -9 0 -27 12 -39 27 -24 27 -29 43
-14 43 12 0 27 40 51 134 18 70 20 112 20 357 0 160 4 289 10 304 5 14 50 67
98 118 49 51 105 110 124 132 34 39 118 184 118 204 0 19 -49 24 -74 8 -33
-22 -339 -334 -353 -361 -7 -13 -16 -124 -23 -281 -6 -143 -13 -269 -15 -280
-2 -11 -4 -86 -4 -165 -1 -304 -2 -336 -13 -366 -6 -17 -20 -37 -32 -44 -24
-16 -140 -23 -165 -11 -33 17 -117 44 -149 49 -18 2 -35 9 -39 14 -4 7 6 9 25
6 17 -2 29 -1 26 3 -2 4 9 23 24 41 60 68 62 78 62 311 0 240 -5 260 -57 242
-41 -15 -52 -58 -52 -213 -1 -73 -6 -142 -11 -153 -14 -26 -20 -133 -10 -170
8 -27 7 -29 -17 -29 -18 0 -24 -4 -19 -15 3 -10 -1 -15 -13 -15 -9 0 -27 -11
-39 -25 -14 -16 -27 -22 -38 -18 -10 4 -22 -1 -30 -11 -7 -11 -27 -18 -47 -19
-31 -1 -34 -4 -31 -24 4 -19 0 -23 -21 -23 -18 0 -25 -5 -25 -20 0 -12 -7 -20
-18 -20 -9 0 -23 -9 -30 -21 -8 -12 -19 -18 -28 -15 -14 6 -64 -14 -92 -37
-11 -8 -11 -12 0 -18 11 -7 11 -9 0 -9 -7 0 -11 -4 -8 -9 7 -11 -56 -24 -63
-13 -3 5 -24 9 -46 9 -22 -1 -69 5 -105 12 -36 7 -72 13 -80 15 -8 1 -26 7
-40 13 -25 11 -46 16 -197 55 -69 18 -86 19 -112 8 -41 -17 -49 -47 -55 -218
-4 -130 -3 -145 14 -162 24 -24 50 -16 78 24 18 26 22 46 22 108 0 57 4 81 18
97 l17 21 207 -69 c191 -64 214 -69 289 -69 61 0 85 -3 93 -14 10 -14 14 -289
5 -348 -7 -46 -100 -66 -171 -36 -45 19 -97 36 -134 45 -16 5 -42 15 -55 25
-14 9 -28 14 -31 10 -3 -3 -25 4 -49 14 -24 11 -57 20 -73 21 -16 0 -34 5 -40
10 -6 4 -35 11 -63 15 -44 6 -53 4 -53 -9 0 -8 -4 -15 -10 -15 -5 0 -10 4 -10
9 0 13 -80 9 -81 -4 -1 -5 -1 -14 0 -19 3 -16 -31 -45 -61 -51 -37 -8 -43 -24
-28 -70 8 -25 19 -37 38 -41 35 -7 54 -15 130 -53 34 -17 72 -31 85 -31 12 0
31 -7 41 -15 11 -8 26 -15 34 -15 7 0 20 -7 28 -15 9 -8 27 -15 42 -15 15 0
36 -7 46 -15 11 -8 27 -15 36 -15 9 0 40 -11 68 -25 29 -14 63 -25 76 -25 13
0 29 -7 36 -15 7 -8 21 -15 32 -15 11 0 49 -13 85 -30 35 -16 72 -30 81 -30 9
0 26 -7 36 -15 36 -27 95 -14 124 27 11 14 26 18 79 18 72 0 153 30 153 56 0
7 14 29 30 47 17 19 30 38 30 42 0 4 14 24 30 45 17 21 30 42 30 47 0 6 9 18
20 28 11 10 36 41 54 69 19 28 45 62 58 76 13 14 44 57 69 95 26 39 61 86 78
105 17 19 31 39 31 44 0 5 16 26 35 47 19 22 35 45 35 52 0 7 16 29 36 48 45
43 77 107 72 145 -2 21 -11 33 -35 44 -18 8 -33 20 -33 27 0 6 18 31 39 55 22
24 61 75 87 113 26 39 55 79 65 91 11 11 19 25 19 31 0 7 6 18 13 25 16 17
107 147 107 154 0 3 20 31 45 62 63 81 78 102 105 147 13 22 29 45 36 50 6 6
18 29 27 52 14 37 17 99 17 447 l1 405 46 55 c43 53 45 59 41 106 -5 52 -21
76 -72 113 l-28 20 12 -22z"/>
<path d="M8413 8855 l-33 -14 0 -95 c0 -102 5 -126 26 -126 19 0 34 33 34 78
0 26 6 45 20 57 19 17 28 18 124 6 130 -15 177 0 148 47 -8 12 -148 46 -237
56 -33 4 -61 1 -82 -9z"/>
<path d="M11220 8840 c-18 -18 -19 -29 -13 -172 6 -158 13 -188 39 -154 10 14
14 49 14 121 0 65 4 105 12 113 7 7 41 12 84 12 55 0 77 4 89 17 16 16 16 18
-4 34 -21 17 -139 49 -180 49 -12 0 -30 -9 -41 -20z"/>
<path d="M1323 8839 c-73 -14 -120 -45 -153 -102 -30 -50 -31 -56 -27 -147 3
-67 17 -148 47 -275 24 -99 45 -182 46 -184 2 -2 19 0 40 3 l36 7 -7 45 c-6
39 -4 45 17 54 24 10 537 127 573 130 39 4 44 0 55 -41 8 -30 15 -39 26 -35 9
3 24 6 35 6 13 0 19 7 19 23 0 24 -64 295 -72 302 -2 2 -17 1 -34 -4 -26 -7
-29 -12 -29 -49 0 -22 -4 -45 -10 -51 -9 -9 -226 -65 -230 -59 -1 2 -9 39 -19
83 -38 167 -78 236 -159 273 -52 25 -100 31 -154 21z m136 -158 c25 -13 43
-32 54 -58 22 -50 51 -172 43 -180 -3 -3 -68 -21 -145 -38 l-139 -32 -18 86
c-22 105 -21 140 2 176 22 33 86 64 132 65 18 0 50 -9 71 -19z"/>
<path d="M8968 8738 c-18 -22 -24 -99 -12 -145 8 -27 42 -31 50 -5 29 88 41
93 170 67 87 -17 94 -17 118 -1 29 19 33 38 11 56 -20 17 -142 40 -240 46 -74
5 -81 3 -97 -18z"/>
<path d="M11735 8746 c-17 -12 -19 -27 -16 -187 1 -96 6 -178 12 -184 28 -28
47 64 49 233 0 43 34 58 105 44 54 -11 92 -2 102 24 10 26 -19 44 -102 65 -92
23 -125 24 -150 5z"/>
<path d="M12442 8737 c-16 -19 -19 -1704 -3 -1720 22 -22 36 13 41 106 3 51 7
256 9 457 2 201 6 520 10 710 l6 345 60 3 c60 3 85 14 85 38 0 22 -28 42 -84
58 -66 19 -110 20 -124 3z"/>
<path d="M15200 8734 c-36 -14 -40 -36 -40 -196 0 -134 2 -160 15 -165 9 -3
25 3 35 12 17 16 20 31 20 116 0 121 6 129 94 129 154 0 116 91 -44 104 -36 3
-72 3 -80 0z"/>
<path d="M15600 8635 c0 -45 17 -95 31 -95 28 0 31 75 4 116 -23 36 -35 29
-35 -21z"/>
<path d="M9561 8641 c-20 -20 -22 -29 -16 -89 10 -98 26 -105 63 -31 21 42 40
45 151 28 71 -11 87 -10 109 2 14 8 27 19 29 25 7 21 -26 43 -75 49 -26 4 -60
11 -76 16 -16 5 -60 12 -96 15 -61 6 -70 4 -89 -15z"/>
<path d="M17921 8624 c-27 -35 -27 -41 9 -71 49 -40 73 -97 68 -157 -7 -78
-143 -489 -174 -526 -33 -39 -75 -60 -133 -69 -42 -6 -46 -9 -49 -36 -4 -51 3
-53 125 -48 l112 6 12 34 c6 19 16 36 23 39 14 5 594 -170 608 -184 6 -6 6
-22 -1 -47 -10 -36 -9 -37 26 -51 19 -8 37 -14 39 -11 6 6 194 597 194 611 0
15 -57 39 -70 31 -4 -3 -11 -17 -15 -32 -8 -34 -23 -53 -41 -53 -8 0 -129 76
-269 170 -271 181 -274 184 -261 254 6 33 5 35 -83 100 -50 36 -92 66 -95 66
-2 0 -14 -12 -25 -26z m446 -505 c142 -94 259 -173 260 -173 8 -6 -63 -196
-72 -193 -5 3 -139 44 -297 92 -212 65 -288 92 -288 103 0 15 66 226 96 310
11 28 21 42 29 38 8 -3 130 -82 272 -177z"/>
<path d="M12923 8620 l-23 -9 -1 -418 c0 -230 -4 -609 -8 -843 -4 -234 -5
-435 -3 -447 6 -34 49 -32 58 2 10 41 21 829 17 1218 -5 416 -7 407 75 407 85
0 109 44 40 73 -45 19 -128 28 -155 17z"/>
<path d="M15635 8520 c3 -5 8 -10 11 -10 2 0 4 5 4 10 0 6 -5 10 -11 10 -5 0
-7 -4 -4 -10z"/>
<path d="M14427 8440 c-43 -34 -51 -79 -49 -255 2 -88 7 -164 13 -170 6 -6 15
-6 27 1 14 9 17 28 18 115 1 146 19 198 85 238 27 17 49 35 49 41 0 5 -9 19
-20 30 -27 27 -89 27 -123 0z"/>
<path d="M1997 8239 c-13 -8 -17 -18 -12 -38 4 -19 0 -34 -12 -48 -10 -12
-139 -114 -288 -228 -148 -114 -278 -215 -289 -225 -17 -17 -18 -20 -2 -68
l17 -50 57 -6 c31 -3 194 -11 362 -17 342 -12 377 -17 386 -55 6 -23 10 -25
38 -20 16 4 35 11 40 16 10 10 -61 250 -75 250 -3 0 -20 -5 -38 -11 -31 -11
-32 -14 -26 -49 8 -46 6 -47 -114 -40 l-94 5 -34 100 c-18 54 -35 107 -38 117
-5 13 12 31 67 71 101 74 95 72 114 35 9 -18 17 -34 19 -36 7 -9 65 23 65 36
0 9 -19 74 -42 144 -45 135 -53 145 -101 117z m-174 -501 c14 -45 25 -83 24
-84 -1 0 -64 1 -139 4 l-138 5 103 78 c56 43 107 78 112 78 6 1 23 -36 38 -81z"/>
<path d="M15176 8168 c-25 -22 -25 -27 -28 -163 -1 -77 1 -146 5 -152 13 -20
44 -15 61 9 11 16 16 46 16 100 0 56 4 81 16 92 19 20 18 20 125 -1 73 -14 94
-15 129 -4 49 14 60 35 33 62 -20 21 -81 38 -218 64 -105 19 -109 19 -139 -7z"/>
<path d="M9179 8166 c-2 -3 -160 -6 -350 -9 -353 -4 -378 -7 -398 -45 -5 -10
-6 -58 -3 -112 6 -82 10 -95 26 -98 25 -5 36 14 36 69 0 85 -7 83 287 92 448
13 566 21 591 37 30 20 28 48 -4 60 -25 10 -176 14 -185 6z"/>
<path d="M11216 8128 c-11 -18 -13 -47 -9 -135 6 -124 15 -150 38 -119 10 13
15 44 15 93 0 89 9 97 103 87 51 -5 65 -3 76 10 22 27 5 44 -65 65 -90 28
-139 28 -158 -1z"/>
<path d="M11743 8020 c-27 -11 -26 -5 -23 -180 2 -139 10 -170 36 -136 9 14
14 47 14 105 0 47 5 93 10 101 7 12 31 15 102 15 93 0 93 0 93 25 0 22 -8 28
-65 46 -82 27 -139 35 -167 24z"/>
<path d="M10435 7996 c-13 -10 -20 -30 -23 -74 -6 -83 -24 -99 -121 -104 -95
-5 -101 -13 -101 -128 0 -90 13 -150 33 -150 21 0 47 60 47 108 0 26 4 52 8
58 4 7 42 15 85 19 67 6 80 11 98 34 18 23 20 37 17 128 -3 110 -12 132 -43
109z"/>
<path d="M5701 7961 c-64 -17 -66 -24 -63 -199 3 -171 6 -192 27 -192 26 0 35
37 35 139 0 129 7 147 62 161 51 12 90 31 95 45 12 38 -80 65 -156 46z"/>
<path d="M5210 7913 c-55 -10 -60 -24 -60 -178 0 -107 3 -146 14 -161 14 -18
16 -18 32 -2 13 13 18 39 21 115 5 109 18 133 75 133 16 0 42 7 57 15 93 47
-5 102 -139 78z"/>
<path d="M4675 7900 c-46 -18 -48 -24 -46 -203 1 -109 3 -129 17 -134 30 -11
44 25 44 117 0 106 11 125 77 135 90 13 125 62 62 84 -37 13 -125 14 -154 1z"/>
<path d="M4195 7893 c-51 -13 -55 -26 -55 -180 0 -124 2 -144 16 -150 30 -11
44 25 44 111 1 102 14 123 87 135 57 9 106 36 100 54 -10 31 -119 47 -192 30z"/>
<path d="M9625 7799 c-23 -19 -26 -27 -22 -58 3 -20 9 -60 13 -88 5 -43 10
-53 25 -53 16 0 19 8 19 49 0 31 5 53 15 61 8 7 48 15 88 17 79 6 117 23 117
53 0 30 -32 40 -133 40 -81 0 -98 -3 -122 -21z"/>
<path d="M17734 7563 c-86 -182 -85 -180 -68 -197 14 -15 53 -31 58 -24 2 1
10 16 18 32 l15 29 87 -138 c48 -76 84 -141 79 -146 -4 -4 -28 -13 -53 -20
-43 -11 -49 -10 -127 26 -85 39 -96 52 -74 94 5 9 7 22 3 28 -8 12 -46 33 -60
33 -13 0 -134 -268 -127 -280 4 -6 19 -17 35 -25 28 -14 29 -14 49 21 26 43
38 42 142 -5 60 -27 68 -34 86 -79 l21 -49 -157 -27 c-86 -14 -159 -26 -163
-26 -4 0 -6 16 -5 36 2 31 -2 37 -29 49 l-32 13 -66 -143 c-36 -79 -66 -151
-66 -159 0 -20 62 -54 68 -37 9 27 55 70 85 80 38 12 419 93 422 89 0 -2 30
-68 64 -147 61 -140 63 -147 58 -207 -6 -62 -6 -62 24 -74 18 -8 34 -9 39 -4
19 19 118 247 113 260 -6 16 -67 38 -71 26 -1 -5 -9 -18 -17 -28 -13 -18 -15
-16 -33 26 -11 25 -47 103 -81 174 -34 71 -60 131 -57 133 5 6 227 -93 247
-111 15 -13 17 -20 7 -46 -12 -35 -1 -52 40 -65 21 -6 27 3 82 120 33 70 60
136 60 146 0 12 -10 23 -26 29 -37 15 -42 13 -59 -20 -9 -16 -23 -30 -33 -30
-25 -1 -263 103 -254 111 8 7 343 109 360 109 7 0 9 -11 6 -30 -6 -26 -3 -31
27 -43 l34 -15 57 117 c67 138 70 157 26 176 -31 12 -33 12 -49 -14 -9 -15
-29 -37 -43 -49 -26 -20 -285 -112 -316 -112 -21 0 -233 362 -233 398 0 15 3
41 7 58 7 26 4 32 -19 42 -14 7 -30 12 -36 12 -6 0 -35 -53 -65 -117z"/>
<path d="M3791 7499 c-14 -5 -31 -7 -38 -5 -18 7 -17 -58 1 -73 8 -7 41 -16
73 -21 33 -4 77 -17 98 -29 22 -12 44 -21 50 -21 9 0 37 -35 41 -50 5 -21 20
-46 31 -53 7 -4 13 -16 13 -25 0 -18 22 -41 62 -64 19 -10 265 -12 1333 -10
721 1 1328 5 1350 8 62 11 90 12 575 18 250 3 478 11 505 17 28 5 253 14 500
20 248 5 551 13 675 18 124 5 352 9 507 10 261 1 283 0 295 -17 7 -10 43 -35
80 -55 37 -21 70 -42 73 -47 4 -6 25 -20 48 -31 39 -20 57 -21 247 -20 114 1
209 6 214 11 6 6 22 10 37 10 32 0 79 35 79 59 0 10 -9 26 -21 37 -16 14 -24
16 -38 7 -10 -7 -117 -14 -272 -18 l-254 -7 -70 47 c-38 26 -94 66 -124 89
l-54 41 -391 -3 c-215 -2 -465 -8 -556 -13 -91 -5 -385 -13 -655 -19 -269 -5
-569 -14 -665 -20 -96 -5 -276 -10 -400 -10 -124 0 -322 -5 -440 -10 -118 -5
-755 -10 -1415 -10 l-1200 0 -23 27 c-13 16 -37 57 -54 91 -50 102 -140 152
-217 121z"/>
<path d="M11175 7478 c-50 -25 -73 -30 -137 -32 -111 -2 -132 -36 -46 -74 73
-33 129 -36 190 -11 29 12 59 27 67 33 7 6 32 16 55 21 33 9 42 16 44 37 8 63
-72 75 -173 26z"/>
<path d="M14161 7478 c-32 -17 -44 -64 -39 -150 2 -45 9 -73 20 -84 15 -15 18
-15 42 9 15 15 26 37 26 52 0 36 17 65 38 65 10 0 101 -27 203 -60 145 -48
192 -60 223 -55 49 7 76 22 76 40 0 27 -86 61 -382 149 -150 45 -178 49 -207
34z"/>
<path d="M2283 7432 c-36 -17 -39 -28 -21 -67 9 -21 9 -28 -3 -40 -23 -22
-541 -246 -563 -243 -16 2 -44 38 -52 65 -2 8 -64 -23 -68 -34 -4 -9 79 -211
98 -240 1 -1 141 9 311 22 170 13 311 23 312 22 1 -1 -97 -96 -218 -212 -120
-115 -219 -215 -219 -221 0 -13 107 -244 113 -244 2 0 19 5 36 11 35 12 35 13
16 89 -8 30 -29 19 308 167 131 57 248 103 259 101 12 -2 28 -17 37 -35 9 -18
21 -33 28 -33 22 0 63 23 63 36 0 13 -108 254 -120 267 -11 12 -70 -20 -70
-38 0 -8 5 -25 11 -39 15 -32 0 -52 -56 -76 -22 -10 -119 -52 -215 -94 l-175
-76 227 221 227 220 -16 35 c-20 41 9 40 -343 13 -150 -11 -282 -19 -292 -17
-11 2 80 46 203 100 122 53 228 94 236 91 8 -3 21 -20 31 -38 17 -33 18 -33
50 -20 17 8 32 21 32 29 0 15 -116 276 -128 287 -4 4 -22 0 -39 -9z"/>
<path d="M11635 7304 c-57 -33 -63 -34 -125 -28 -130 13 -154 8 -134 -24 14
-23 77 -57 142 -76 48 -15 57 -15 98 -1 25 8 62 26 82 40 29 20 49 25 97 25
37 0 69 6 80 14 19 14 19 14 0 36 -54 60 -151 66 -240 14z"/>
<path d="M3026 7215 c4 -8 8 -15 10 -15 2 0 4 7 4 15 0 8 -4 15 -10 15 -5 0
-7 -7 -4 -15z"/>
<path d="M3060 7219 c0 -5 5 -7 10 -4 6 3 10 8 10 11 0 2 -4 4 -10 4 -5 0 -10
-5 -10 -11z"/>
<path d="M12159 7073 c-46 -26 -47 -27 -118 -13 -76 14 -146 6 -146 -17 0 -19
66 -63 95 -63 14 0 30 -4 36 -9 17 -18 136 -24 179 -9 34 11 40 18 47 53 19
87 -10 105 -93 58z"/>
<path d="M13884 7057 c-12 -7 -106 -93 -209 -192 -104 -99 -193 -184 -199
-190 -6 -5 -41 -39 -78 -74 -52 -49 -74 -64 -96 -63 -16 0 -170 48 -343 107
-173 58 -380 128 -460 156 -149 50 -229 62 -229 35 0 -27 50 -75 86 -82 19 -3
37 -10 40 -15 3 -5 15 -9 27 -9 12 0 31 -7 41 -15 11 -8 29 -15 41 -15 12 0
26 -5 32 -11 6 -6 26 -14 44 -19 19 -5 59 -18 89 -30 30 -12 66 -24 80 -27 14
-2 39 -11 55 -18 75 -34 104 -45 115 -45 7 0 34 -11 62 -25 27 -14 60 -25 72
-25 12 0 27 -5 33 -11 6 -6 26 -14 44 -19 19 -5 65 -20 103 -34 95 -36 134
-34 188 7 24 19 131 122 238 230 146 147 205 200 237 212 38 15 43 21 57 70 9
29 16 62 16 72 0 40 -43 55 -86 30z"/>
<path d="M3164 6959 c-3 -6 0 -18 9 -26 13 -13 14 -12 10 11 -6 29 -9 31 -19
15z"/>
<path d="M16857 6913 c-4 -3 -7 -11 -7 -17 0 -6 5 -5 12 2 6 6 9 14 7 17 -3 3
-9 2 -12 -2z"/>
<path d="M10322 6855 c-11 -54 1 -130 26 -164 34 -46 42 -38 42 43 0 57 -5 86
-22 121 -12 25 -25 45 -29 45 -4 0 -12 -20 -17 -45z"/>
<path d="M16836 6863 c-6 -14 -5 -15 5 -6 7 7 10 15 7 18 -3 3 -9 -2 -12 -12z"/>
<path d="M16812 6820 c-18 -29 -15 -38 4 -12 9 13 14 25 12 27 -2 2 -9 -5 -16
-15z"/>
<path d="M3251 6793 c0 -6 -4 -20 -7 -30 -5 -14 -4 -15 5 -7 7 7 11 20 8 30
-3 11 -5 14 -6 7z"/>
<path d="M3266 6723 c-6 -14 -5 -15 5 -6 7 7 10 15 7 18 -3 3 -9 -2 -12 -12z"/>
<path d="M10078 6700 c-34 -26 -90 -136 -128 -247 -58 -176 -62 -393 -10 -573
10 -36 22 -76 26 -90 11 -41 84 -187 99 -200 25 -21 26 8 0 87 -14 43 -30 87
-35 98 -13 30 -28 129 -36 232 -6 89 4 209 27 298 6 22 13 51 16 65 3 14 14
43 24 66 10 22 19 45 19 51 0 6 7 16 15 23 18 15 45 106 45 152 0 31 -14 58
-31 58 -3 0 -18 -9 -31 -20z"/>
<path d="M16730 6660 c-17 -33 -28 -60 -25 -60 2 0 18 27 35 60 17 33 28 60
25 60 -2 0 -18 -27 -35 -60z"/>
<path d="M3325 6640 c-3 -5 -1 -10 4 -10 6 0 11 5 11 10 0 6 -2 10 -4 10 -3 0
-8 -4 -11 -10z"/>
<path d="M16665 6540 c-9 -16 -13 -30 -11 -30 3 0 12 14 21 30 9 17 13 30 11
30 -3 0 -12 -13 -21 -30z"/>
<path d="M13855 6541 c-34 -5 -40 -10 -43 -33 -3 -22 3 -29 30 -42 46 -21 128
-24 156 -6 22 15 30 40 12 40 -5 0 -10 6 -10 13 0 31 -57 41 -145 28z"/>
<path d="M16625 6470 c-9 -16 -13 -30 -11 -30 3 0 12 14 21 30 9 17 13 30 11
30 -3 0 -12 -13 -21 -30z"/>
<path d="M16536 6319 c-37 -62 -65 -113 -63 -115 2 -3 42 61 117 189 12 20 20
37 17 37 -2 0 -34 -50 -71 -111z"/>
<path d="M3520 6310 c0 -5 5 -10 10 -10 6 0 10 5 10 10 0 6 -4 10 -10 10 -5 0
-10 -4 -10 -10z"/>
<path d="M3507 6285 c6 -11 12 -27 15 -34 4 -13 5 -13 10 0 3 7 -4 23 -15 34
l-20 20 10 -20z"/>
<path d="M3577 6266 c-4 -10 -1 -13 9 -9 7 3 14 9 14 14 0 14 -17 10 -23 -5z"/>
<path d="M3540 6230 c0 -5 5 -10 11 -10 5 0 7 5 4 10 -3 6 -8 10 -11 10 -2 0
-4 -4 -4 -10z"/>
<path d="M3583 6225 c-3 -9 -3 -18 -1 -21 3 -3 8 4 11 16 6 23 -1 27 -10 5z"/>
<path d="M16361 6043 c-54 -82 -122 -182 -151 -223 -28 -41 -40 -61 -25 -45
33 39 288 415 281 415 -3 0 -50 -66 -105 -147z"/>
<path d="M3646 6087 c3 -10 9 -15 12 -12 3 3 0 11 -7 18 -10 9 -11 8 -5 -6z"/>
<path d="M3805 5849 c-3 -4 2 -6 10 -5 21 3 28 13 10 13 -9 0 -18 -4 -20 -8z"/>
<path d="M3900 5790 c0 -5 5 -10 10 -10 6 0 10 5 10 10 0 6 -4 10 -10 10 -5 0
-10 -4 -10 -10z"/>
<path d="M3905 5760 c-3 -5 -1 -10 4 -10 6 0 11 5 11 10 0 6 -2 10 -4 10 -3 0
-8 -4 -11 -10z"/>
<path d="M10930 5751 c0 -6 4 -13 10 -16 6 -3 7 1 4 9 -7 18 -14 21 -14 7z"/>
<path d="M16143 5728 c-43 -57 -66 -91 -58 -86 12 7 78 98 72 98 -3 0 -9 -6
-14 -12z"/>
<path d="M10989 5653 c11 -21 34 -58 50 -83 17 -25 31 -50 31 -56 0 -6 7 -17
15 -24 8 -7 15 -20 15 -30 0 -10 7 -23 15 -30 8 -7 15 -19 15 -27 0 -8 6 -21
14 -29 15 -15 11 -47 -8 -63 -6 -5 -188 -13 -403 -17 -470 -11 -438 -1 -438
-139 0 -72 3 -86 20 -99 45 -34 67 -16 79 65 l7 47 232 5 c128 2 306 5 397 6
143 1 168 4 190 20 30 21 37 62 16 81 -9 7 -16 18 -16 25 0 7 -11 23 -24 36
-13 13 -36 49 -52 79 -15 30 -31 57 -34 60 -8 7 -62 95 -96 157 -33 60 -55 73
-25 16z"/>
<path d="M15928 5453 c-79 -98 -208 -248 -285 -333 -218 -241 -412 -427 -748
-719 -148 -128 -387 -308 -615 -463 -130 -88 -415 -268 -424 -268 -3 0 -34
-17 -68 -38 -35 -21 -108 -62 -163 -92 -55 -29 -129 -68 -164 -87 -35 -19 -70
-32 -78 -29 -8 3 -12 2 -9 -2 7 -12 -63 -44 -76 -36 -6 4 -8 3 -5 -3 8 -13
-78 -54 -100 -47 -13 4 -15 3 -5 -4 11 -7 10 -10 -3 -16 -25 -9 -37 -7 -29 6
4 7 3 8 -5 4 -6 -4 -9 -11 -7 -15 7 -11 -72 -44 -85 -35 -7 4 -9 3 -6 -3 9
-14 -48 -37 -64 -27 -8 5 -9 3 -4 -6 6 -10 4 -12 -11 -6 -10 4 -15 4 -11 0 3
-4 -16 -18 -44 -30 -56 -27 -74 -30 -63 -12 4 7 3 8 -5 4 -6 -4 -8 -12 -5 -18
5 -7 0 -9 -14 -6 -12 4 -20 2 -17 -2 7 -11 -61 -33 -75 -25 -6 4 -9 1 -8 -7 2
-8 -7 -13 -24 -13 -14 1 -24 -3 -22 -7 3 -4 -3 -7 -13 -5 -10 1 -19 -2 -20 -8
-2 -10 -29 -23 -51 -24 -7 -1 -10 3 -7 9 3 6 -1 7 -10 3 -14 -5 -14 -8 -3 -15
9 -7 3 -8 -17 -4 -19 4 -25 3 -17 -2 9 -6 -27 -22 -113 -51 -129 -42 -162 -49
-135 -30 10 7 11 9 2 7 -8 -2 -13 -8 -13 -13 0 -15 -97 -45 -149 -46 -35 -1
-41 -4 -25 -11 14 -6 8 -7 -20 -3 -26 3 -33 2 -20 -4 16 -7 15 -9 -13 -14 -17
-4 -40 -4 -49 -1 -12 4 -14 3 -6 -3 15 -11 -66 -37 -119 -37 -20 -1 -34 -4
-32 -8 7 -11 -35 -20 -90 -21 -38 0 -45 -2 -26 -8 l25 -7 -25 -1 c-14 -1 -50
-7 -80 -15 -87 -21 -132 -27 -124 -14 5 8 1 9 -10 5 -10 -4 -25 -8 -34 -8 -9
-1 -3 -5 13 -9 l30 -8 -32 -1 c-17 0 -39 -4 -49 -8 -11 -4 -15 -3 -11 4 5 7 0
9 -13 6 -11 -3 -20 -10 -20 -15 0 -6 -11 -8 -25 -6 -15 3 -22 1 -18 -5 4 -7
-14 -8 -53 -5 -32 4 -68 2 -79 -3 -14 -6 -9 -7 20 -4 38 5 38 4 10 -5 -16 -6
-60 -12 -97 -13 -36 -1 -64 -5 -61 -9 2 -5 -6 -8 -18 -8 -12 0 -20 -3 -16 -6
8 -9 191 20 407 62 1324 263 2527 856 3555 1753 158 138 478 454 620 611 156
174 435 510 422 510 -2 0 -69 -80 -149 -177z"/>
<path d="M3998 5613 c7 -3 16 -2 19 1 4 3 -2 6 -13 5 -11 0 -14 -3 -6 -6z"/>
<path d="M3970 5606 c0 -2 8 -10 18 -17 15 -13 16 -12 3 4 -13 16 -21 21 -21
13z"/>
<path d="M4035 5570 c-3 -6 1 -7 9 -4 18 7 21 14 7 14 -6 0 -13 -4 -16 -10z"/>
<path d="M4051 5526 c-9 -10 -8 -15 4 -19 9 -4 12 -13 8 -24 -5 -14 -3 -16 7
-6 11 10 11 15 1 27 -7 8 -10 20 -6 26 9 15 -1 12 -14 -4z"/>
<path d="M4120 5444 c0 -8 5 -12 10 -9 6 3 10 10 10 16 0 5 -4 9 -10 9 -5 0
-10 -7 -10 -16z"/>
<path d="M4225 5390 c-3 -5 -1 -10 4 -10 6 0 11 5 11 10 0 6 -2 10 -4 10 -3 0
-8 -4 -11 -10z"/>
<path d="M9630 5389 c0 -9 7 -22 15 -29 8 -7 15 -23 15 -36 0 -13 4 -24 8 -24
5 0 15 -11 22 -25 22 -41 71 -63 153 -68 41 -3 84 -10 94 -15 11 -6 60 -12
110 -14 83 -3 92 -2 97 15 2 11 2 25 -1 33 -15 40 -167 81 -343 94 l-104 7
-33 39 c-21 25 -33 33 -33 23z"/>
<path d="M4205 5330 c-3 -5 -2 -10 4 -10 5 0 13 5 16 10 3 6 2 10 -4 10 -5 0
-13 -4 -16 -10z"/>
<path d="M4297 5264 c-8 -8 1 -24 14 -24 5 0 9 7 9 15 0 15 -12 20 -23 9z"/>
<path d="M4342 5219 c-2 -27 0 -30 12 -20 8 6 12 21 9 31 -8 30 -18 24 -21
-11z"/>
<path d="M4380 5150 c0 -5 5 -10 11 -10 5 0 7 5 4 10 -3 6 -8 10 -11 10 -2 0
-4 -4 -4 -10z"/>
<path d="M10955 4979 c-12 -18 -49 -43 -95 -66 -41 -21 -97 -51 -125 -68 -102
-64 -129 -66 -240 -25 -73 27 -166 24 -265 -10 -36 -12 -88 -22 -116 -22 -65
0 -168 40 -249 96 -67 47 -115 70 -115 56 0 -40 92 -153 152 -185 15 -8 30
-24 33 -35 8 -24 95 -66 153 -75 22 -3 80 5 147 20 137 31 163 31 255 0 40
-14 88 -25 106 -25 44 0 203 58 223 81 8 11 21 19 27 19 7 0 14 4 16 8 2 5 34
23 72 42 55 26 71 39 83 68 19 45 7 119 -22 138 -18 12 -22 10 -40 -17z"/>
<path d="M4665 4840 c3 -5 8 -10 11 -10 2 0 4 5 4 10 0 6 -5 10 -11 10 -5 0
-7 -4 -4 -10z"/>
<path d="M4756 4726 c3 -8 12 -17 20 -20 12 -4 12 -2 4 14 -12 23 -32 27 -24
6z"/>
<path d="M11293 4601 c-13 -36 -62 -71 -145 -106 -72 -30 -53 -29 -314 -9 -59
5 -88 2 -160 -20 -109 -32 -120 -32 -224 -1 -46 14 -102 25 -126 25 -23 0 -67
-11 -98 -25 -70 -31 -144 -33 -241 -5 -92 26 -133 25 -207 -5 -83 -34 -151
-34 -262 -1 -48 14 -96 26 -105 26 -9 0 -22 5 -29 12 -9 9 -12 6 -12 -15 0
-14 5 -37 11 -50 12 -26 104 -87 131 -87 9 0 20 -9 23 -20 3 -11 16 -25 27
-31 51 -28 76 -27 198 2 67 16 137 29 155 29 39 0 94 -18 118 -38 21 -19 92
-18 162 3 152 43 162 45 220 30 31 -8 67 -22 80 -31 34 -22 99 -19 215 10 105
26 155 24 246 -9 48 -18 53 -18 130 0 46 10 86 25 96 36 9 11 23 19 32 19 24
0 129 50 150 72 42 45 21 158 -37 200 -23 16 -24 15 -34 -11z"/>
<path d="M5082 4478 c5 -15 28 -23 28 -10 0 5 -7 13 -16 16 -10 4 -14 1 -12
-6z"/>
<path d="M5080 4441 c0 -5 9 -7 20 -4 11 3 20 7 20 9 0 2 -9 4 -20 4 -11 0
-20 -4 -20 -9z"/>
<path d="M5130 4410 c-8 -5 -10 -10 -5 -10 6 0 17 5 25 10 8 5 11 10 5 10 -5
0 -17 -5 -25 -10z"/>
<path d="M5181 4406 c-7 -8 -8 -17 -3 -20 6 -3 13 1 16 10 9 23 2 28 -13 10z"/>
<path d="M11279 4201 c-20 -28 -38 -41 -73 -51 -26 -7 -49 -17 -52 -21 -8 -13
-85 -32 -125 -30 -20 0 -49 8 -65 16 -16 8 -37 15 -46 15 -9 0 -20 5 -24 11
-11 18 -109 3 -184 -26 -55 -22 -79 -26 -150 -24 -50 2 -93 8 -105 16 -34 23
-135 16 -236 -17 -85 -27 -150 -33 -178 -15 -12 7 -62 15 -132 22 -55 5 -77 1
-144 -22 -87 -30 -141 -30 -226 0 -46 17 -172 45 -177 40 -2 -1 3 -21 10 -44
11 -35 22 -48 68 -75 121 -72 148 -81 250 -81 72 0 103 4 127 18 43 23 136 24
188 1 55 -24 236 -23 273 2 36 23 158 22 204 -2 45 -24 217 -23 255 1 28 19
147 23 167 6 19 -16 94 -39 118 -35 148 21 219 38 228 54 6 10 26 21 49 25 23
4 49 18 66 35 25 26 27 34 23 84 -4 43 -12 65 -34 93 -17 20 -34 38 -40 39 -5
2 -21 -14 -35 -35z"/>
<path d="M5498 4153 c7 -3 16 -2 19 1 4 3 -2 6 -13 5 -11 0 -14 -3 -6 -6z"/>
<path d="M5550 4090 c20 -13 33 -13 25 0 -3 6 -14 10 -23 10 -15 0 -15 -2 -2
-10z"/>
<path d="M5705 4000 c-3 -5 -1 -10 4 -10 6 0 11 5 11 10 0 6 -2 10 -4 10 -3 0
-8 -4 -11 -10z"/>
<path d="M5740 3969 c0 -5 5 -7 10 -4 6 3 10 8 10 11 0 2 -4 4 -10 4 -5 0 -10
-5 -10 -11z"/>
<path d="M5823 3915 c0 -8 4 -12 9 -9 5 3 6 10 3 15 -9 13 -12 11 -12 -6z"/>
<path d="M5928 3853 c6 -2 18 -2 25 0 6 3 1 5 -13 5 -14 0 -19 -2 -12 -5z"/>
<path d="M5980 3804 c0 -8 5 -12 10 -9 6 4 8 11 5 16 -9 14 -15 11 -15 -7z"/>
<path d="M6054 3769 c13 -8 15 -13 6 -19 -9 -5 -8 -9 3 -13 8 -3 14 0 13 6 -3
20 -17 37 -29 37 -7 0 -4 -5 7 -11z"/>
<path d="M6330 3600 c12 -8 12 -10 1 -10 -8 0 -12 -2 -9 -5 3 -3 13 -2 22 1
14 5 15 9 4 15 -7 5 -17 9 -23 9 -5 0 -3 -5 5 -10z"/>
<path d="M6378 3603 c7 -3 16 -2 19 1 4 3 -2 6 -13 5 -11 0 -14 -3 -6 -6z"/>
<path d="M6440 3530 c-11 -8 -7 -9 15 -4 37 8 45 14 19 14 -10 0 -26 -5 -34
-10z"/>
<path d="M6548 3533 c6 -2 18 -2 25 0 6 3 1 5 -13 5 -14 0 -19 -2 -12 -5z"/>
<path d="M6855 3370 c-3 -6 1 -7 9 -4 18 7 21 14 7 14 -6 0 -13 -4 -16 -10z"/>
<path d="M6810 3350 c-8 -5 -10 -10 -5 -10 6 0 17 5 25 10 8 5 11 10 5 10 -5
0 -17 -5 -25 -10z"/>
<path d="M6960 3280 c0 -5 5 -10 10 -10 6 0 10 5 10 10 0 6 -4 10 -10 10 -5 0
-10 -4 -10 -10z"/>
<path d="M13005 3260 c-3 -6 1 -7 9 -4 18 7 21 14 7 14 -6 0 -13 -4 -16 -10z"/>
<path d="M7420 3119 c0 -5 5 -7 10 -4 6 3 10 8 10 11 0 2 -4 4 -10 4 -5 0 -10
-5 -10 -11z"/>
<path d="M12328 3003 c7 -3 16 -2 19 1 4 3 -2 6 -13 5 -11 0 -14 -3 -6 -6z"/>
<path d="M7828 2973 c6 -2 18 -2 25 0 6 3 1 5 -13 5 -14 0 -19 -2 -12 -5z"/>
<path d="M8148 2893 c7 -3 16 -2 19 1 4 3 -2 6 -13 5 -11 0 -14 -3 -6 -6z"/>
<path d="M8230 2891 c12 -9 13 -11 1 -11 -8 0 -12 -2 -9 -5 3 -3 16 -1 29 4
13 5 19 10 12 10 -6 1 -20 4 -30 7 -15 5 -15 4 -3 -5z"/>
<path d="M11940 2890 c-8 -5 -10 -10 -5 -10 6 0 17 5 25 10 8 5 11 10 5 10 -5
0 -17 -5 -25 -10z"/>
<path d="M11798 2853 c7 -3 16 -2 19 1 4 3 -2 6 -13 5 -11 0 -14 -3 -6 -6z"/>
<path d="M11318 2753 c7 -3 16 -2 19 1 4 3 -2 6 -13 5 -11 0 -14 -3 -6 -6z"/>
<path d="M11010 2710 c-24 -8 -24 -8 5 -9 17 0 37 4 45 9 12 8 11 10 -5 9 -11
-1 -31 -5 -45 -9z"/>
<path d="M10613 2420 c-226 -114 -412 -344 -468 -580 -24 -97 -24 -253 -2
-339 33 -122 104 -218 196 -263 39 -20 62 -23 151 -23 97 0 109 2 158 29 186
103 263 356 165 538 -63 118 -225 162 -346 96 -31 -18 -42 -30 -42 -48 0 -23
3 -24 56 -21 48 2 60 -2 86 -23 47 -39 65 -96 71 -216 8 -187 -29 -280 -111
-280 -107 0 -166 171 -154 443 12 280 108 498 278 627 67 51 85 82 54 94 -8 3
-49 -12 -92 -34z"/>
<path d="M8895 2337 c-92 -62 -219 -130 -325 -174 -57 -24 -106 -43 -107 -43
-2 0 -3 -8 -3 -19 0 -49 58 -51 192 -5 39 13 75 24 80 24 5 0 7 -176 6 -391
l-3 -391 -23 -18 c-12 -10 -48 -24 -80 -30 -102 -20 -123 -38 -84 -72 14 -13
32 -14 107 -8 129 12 286 12 388 -1 94 -11 117 -5 117 32 0 23 -20 34 -92 49
-32 6 -68 20 -80 30 l-23 18 -3 516 c-1 284 -6 516 -10 516 -4 0 -30 -15 -57
-33z"/>
<path d="M9513 2349 c-191 -37 -303 -199 -291 -419 6 -100 22 -142 75 -200 49
-55 109 -82 182 -82 105 0 181 37 181 87 0 24 -2 25 -52 19 -45 -5 -58 -2 -87
18 -71 48 -109 188 -90 325 17 120 63 183 133 183 82 0 121 -70 139 -245 25
-255 -41 -573 -151 -722 -46 -62 -124 -119 -187 -138 -42 -12 -55 -20 -55 -35
0 -54 98 -45 233 22 141 71 278 225 344 390 79 195 83 435 9 592 -51 110 -124
173 -231 201 -64 16 -88 17 -152 4z"/>
<path d="M11297 2350 c-191 -32 -309 -203 -294 -425 6 -94 24 -140 75 -197 50
-56 102 -78 182 -77 103 0 180 36 180 85 0 21 -3 22 -52 17 -44 -4 -59 -1 -88
19 -136 91 -126 459 14 506 56 18 98 -5 131 -72 38 -78 53 -246 37 -408 -36
-356 -152 -567 -343 -624 -37 -11 -49 -20 -49 -34 0 -66 163 -30 307 68 151
103 263 276 309 477 24 104 24 285 1 374 -55 206 -220 322 -410 291z"/>
</g>
</svg>
